<svg width="current" height="current" viewBox="0 0 16 16" fill="none" xmlns="http://www.w3.org/2000/svg">
<path fill-rule="evenodd" clip-rule="evenodd" d="M3.12132 1.70711L2.41421 1L1 2.41421L1.70711 3.12132L6.71533 8.12955L1.70743 13.1374L1.00033 13.8446L2.41454 15.2588L3.12165 14.5517L8.12955 9.54376L13.1362 14.5504L13.8433 15.2575L15.2575 13.8433L14.5504 13.1362L9.54376 8.12955L14.5481 3.12523L15.2552 2.41812L13.841 1.00391L13.1339 1.71101L8.12955 6.71533L3.12132 1.70711Z" fill="white"/>
<path d="M2.41421 1L2.59099 0.823223L2.41421 0.646447L2.23744 0.823223L2.41421 1ZM3.12132 1.70711L2.94454 1.88388L3.12132 1.70711ZM1 2.41421L0.823223 2.23744L0.646447 2.41421L0.823223 2.59099L1 2.41421ZM1.70711 3.12132L1.88388 2.94454L1.70711 3.12132ZM6.71533 8.12955L6.89211 8.30632L7.06889 8.12955L6.89211 7.95277L6.71533 8.12955ZM1.70743 13.1374L1.53066 12.9607H1.53066L1.70743 13.1374ZM1.00033 13.8446L0.823551 13.6678L0.646774 13.8446L0.823551 14.0213L1.00033 13.8446ZM2.41454 15.2588L2.23776 15.4355L2.41454 15.6123L2.59132 15.4355L2.41454 15.2588ZM3.12165 14.5517L3.29842 14.7284L3.12165 14.5517ZM8.12955 9.54376L8.30632 9.36698L8.12955 9.1902L7.95277 9.36698L8.12955 9.54376ZM13.1362 14.5504L12.9594 14.7272L13.1362 14.5504ZM13.8433 15.2575L13.6666 15.4343L13.8433 15.6111L14.0201 15.4343L13.8433 15.2575ZM15.2575 13.8433L15.4343 14.0201L15.6111 13.8433L15.4343 13.6666L15.2575 13.8433ZM14.5504 13.1362L14.7272 12.9594L14.5504 13.1362ZM9.54376 8.12955L9.36698 7.95277L9.1902 8.12955L9.36698 8.30632L9.54376 8.12955ZM14.5481 3.12523L14.7249 3.302L14.5481 3.12523ZM15.2552 2.41812L15.432 2.5949L15.6087 2.41812L15.432 2.24134L15.2552 2.41812ZM13.841 1.00391L14.0177 0.82713L13.841 0.650353L13.6642 0.82713L13.841 1.00391ZM13.1339 1.71101L13.3106 1.88779V1.88779L13.1339 1.71101ZM8.12955 6.71533L7.95277 6.89211L8.12955 7.06889L8.30632 6.89211L8.12955 6.71533ZM2.23744 1.17678L2.94454 1.88388L3.2981 1.53033L2.59099 0.823223L2.23744 1.17678ZM1.17678 2.59099L2.59099 1.17678L2.23744 0.823223L0.823223 2.23744L1.17678 2.59099ZM1.88388 2.94454L1.17678 2.23744L0.823223 2.59099L1.53033 3.2981L1.88388 2.94454ZM6.89211 7.95277L1.88388 2.94454L1.53033 3.2981L6.53856 8.30632L6.89211 7.95277ZM1.88421 13.3142L6.89211 8.30632L6.53856 7.95277L1.53066 12.9607L1.88421 13.3142ZM1.1771 14.0213L1.88421 13.3142L1.53066 12.9607L0.823551 13.6678L1.1771 14.0213ZM2.59132 15.082L1.1771 13.6678L0.823551 14.0213L2.23776 15.4355L2.59132 15.082ZM2.94487 14.3749L2.23776 15.082L2.59132 15.4355L3.29842 14.7284L2.94487 14.3749ZM7.95277 9.36698L2.94487 14.3749L3.29842 14.7284L8.30632 9.72054L7.95277 9.36698ZM13.313 14.3737L8.30632 9.36698L7.95277 9.72054L12.9594 14.7272L13.313 14.3737ZM14.0201 15.0808L13.313 14.3737L12.9594 14.7272L13.6666 15.4343L14.0201 15.0808ZM15.0808 13.6666L13.6666 15.0808L14.0201 15.4343L15.4343 14.0201L15.0808 13.6666ZM14.3737 13.313L15.0808 14.0201L15.4343 13.6666L14.7272 12.9594L14.3737 13.313ZM9.36698 8.30632L14.3737 13.313L14.7272 12.9594L9.72054 7.95277L9.36698 8.30632ZM14.3713 2.94845L9.36698 7.95277L9.72054 8.30632L14.7249 3.302L14.3713 2.94845ZM15.0784 2.24134L14.3713 2.94845L14.7249 3.302L15.432 2.5949L15.0784 2.24134ZM13.6642 1.18068L15.0784 2.5949L15.432 2.24134L14.0177 0.82713L13.6642 1.18068ZM13.3106 1.88779L14.0177 1.18068L13.6642 0.82713L12.9571 1.53424L13.3106 1.88779ZM8.30632 6.89211L13.3106 1.88779L12.9571 1.53424L7.95277 6.53856L8.30632 6.89211ZM2.94454 1.88388L7.95277 6.89211L8.30632 6.53856L3.2981 1.53033L2.94454 1.88388Z" fill="white"/>
</svg>
