<svg width="current" height="current" viewBox="0 0 683 113" fill="none" xmlns="http://www.w3.org/2000/svg">
<path d="M129.175 76L125.02 62.3636H127.222L130.169 72.804H130.311L133.223 62.3636H135.461L138.337 72.7685H138.479L141.426 62.3636H143.628L139.473 76H137.414L134.431 65.5241H134.218L131.235 76H129.175ZM149.988 76L145.833 62.3636H148.034L150.982 72.804H151.124L154.036 62.3636H156.273L159.15 72.7685H159.292L162.239 62.3636H164.441L160.286 76H158.226L155.243 65.5241H155.03L152.047 76H149.988ZM170.8 76L166.645 62.3636H168.847L171.794 72.804H171.936L174.848 62.3636H177.086L179.962 72.7685H180.104L183.051 62.3636H185.253L181.098 76H179.039L176.056 65.5241H175.843L172.86 76H170.8ZM188.195 76.142C187.757 76.142 187.381 75.9852 187.067 75.6715C186.753 75.3578 186.597 74.982 186.597 74.544C186.597 74.1061 186.753 73.7302 187.067 73.4165C187.381 73.1029 187.757 72.946 188.195 72.946C188.633 72.946 189.008 73.1029 189.322 73.4165C189.636 73.7302 189.793 74.1061 189.793 74.544C189.793 74.834 189.719 75.1004 189.571 75.343C189.429 75.5857 189.236 75.781 188.994 75.929C188.757 76.071 188.491 76.142 188.195 76.142ZM203.356 81.1136V73.9048H203.179C203.025 74.1534 202.806 74.4671 202.522 74.8459C202.238 75.2187 201.832 75.5531 201.306 75.8491C200.779 76.1391 200.077 76.2841 199.202 76.2841C198.065 76.2841 197.062 75.997 196.192 75.4229C195.322 74.8429 194.641 74.0262 194.15 72.9727C193.659 71.9132 193.413 70.6615 193.413 69.2173C193.413 67.785 193.659 66.5421 194.15 65.4886C194.641 64.4351 195.325 63.6213 196.201 63.0472C197.077 62.4731 198.089 62.1861 199.237 62.1861C200.125 62.1861 200.826 62.334 201.341 62.63C201.862 62.92 202.258 63.2514 202.531 63.6243C202.809 63.9912 203.025 64.2931 203.179 64.5298H203.427V62.3636H205.452V81.1136H203.356ZM199.486 74.402C200.326 74.402 201.036 74.183 201.616 73.745C202.196 73.3011 202.637 72.6886 202.939 71.9073C203.241 71.1201 203.392 70.2116 203.392 69.1818C203.392 68.1638 203.244 67.2731 202.948 66.5096C202.652 65.7402 202.214 65.1424 201.634 64.7163C201.054 64.2842 200.338 64.0682 199.486 64.0682C198.598 64.0682 197.858 64.296 197.266 64.7518C196.68 65.2016 196.239 65.8142 195.943 66.5895C195.653 67.3589 195.508 68.223 195.508 69.1818C195.508 70.1525 195.656 71.0343 195.952 71.8274C196.254 72.6146 196.698 73.242 197.284 73.7095C197.876 74.1712 198.61 74.402 199.486 74.402ZM209.787 76V62.3636H211.811V64.4233H211.953C212.202 63.7486 212.651 63.2011 213.302 62.7809C213.953 62.3607 214.687 62.1506 215.504 62.1506C215.658 62.1506 215.85 62.1535 216.081 62.1594C216.312 62.1654 216.487 62.1742 216.605 62.1861V64.3168C216.534 64.299 216.371 64.2724 216.117 64.2369C215.868 64.1954 215.605 64.1747 215.327 64.1747C214.664 64.1747 214.072 64.3138 213.551 64.592C213.036 64.8642 212.628 65.243 212.326 65.7283C212.03 66.2077 211.882 66.7552 211.882 67.3707V76H209.787ZM229.248 65.4176L227.366 65.9503C227.247 65.6366 227.073 65.3318 226.842 65.0359C226.617 64.734 226.309 64.4854 225.918 64.2901C225.528 64.0948 225.028 63.9972 224.418 63.9972C223.584 63.9972 222.888 64.1895 222.332 64.5742C221.781 64.953 221.506 65.4354 221.506 66.0213C221.506 66.5421 221.696 66.9535 222.074 67.2553C222.453 67.5572 223.045 67.8087 223.85 68.0099L225.874 68.5071C227.093 68.803 228.002 69.2558 228.6 69.8654C229.197 70.4691 229.496 71.2474 229.496 72.2003C229.496 72.9815 229.271 73.6799 228.821 74.2955C228.378 74.911 227.756 75.3963 226.957 75.7514C226.158 76.1065 225.229 76.2841 224.169 76.2841C222.779 76.2841 221.627 75.9822 220.716 75.3786C219.805 74.7749 219.227 73.893 218.985 72.733L220.973 72.2358C221.163 72.9697 221.521 73.5201 222.048 73.8871C222.58 74.254 223.276 74.4375 224.134 74.4375C225.111 74.4375 225.886 74.2304 226.46 73.8161C227.04 73.3958 227.33 72.8928 227.33 72.3068C227.33 71.8333 227.164 71.4368 226.833 71.1172C226.501 70.7917 225.992 70.549 225.306 70.3892L223.033 69.8565C221.784 69.5606 220.867 69.1019 220.281 68.4805C219.701 67.8531 219.411 67.0689 219.411 66.1278C219.411 65.3584 219.627 64.6778 220.059 64.0859C220.497 63.4941 221.092 63.0295 221.843 62.6921C222.601 62.3548 223.459 62.1861 224.418 62.1861C225.767 62.1861 226.827 62.482 227.596 63.0739C228.372 63.6657 228.922 64.447 229.248 65.4176ZM239.08 62.3636V64.1392H232.014V62.3636H239.08ZM234.073 59.0966H236.169V72.0938C236.169 72.6856 236.254 73.1295 236.426 73.4254C236.604 73.7154 236.828 73.9107 237.101 74.0114C237.379 74.1061 237.672 74.1534 237.98 74.1534C238.21 74.1534 238.4 74.1416 238.548 74.1179C238.696 74.0883 238.814 74.0646 238.903 74.0469L239.329 75.929C239.187 75.9822 238.989 76.0355 238.734 76.0888C238.48 76.148 238.157 76.1776 237.767 76.1776C237.175 76.1776 236.595 76.0503 236.026 75.7958C235.464 75.5413 234.997 75.1536 234.624 74.6328C234.257 74.112 234.073 73.455 234.073 72.6619V59.0966ZM244.259 76.142C243.821 76.142 243.445 75.9852 243.132 75.6715C242.818 75.3578 242.661 74.982 242.661 74.544C242.661 74.1061 242.818 73.7302 243.132 73.4165C243.445 73.1029 243.821 72.946 244.259 72.946C244.697 72.946 245.073 73.1029 245.387 73.4165C245.7 73.7302 245.857 74.1061 245.857 74.544C245.857 74.834 245.783 75.1004 245.635 75.343C245.493 75.5857 245.301 75.781 245.058 75.929C244.821 76.071 244.555 76.142 244.259 76.142ZM252.07 71.0284L252.034 68.4361H252.461L258.426 62.3636H261.019L254.662 68.7912H254.485L252.07 71.0284ZM250.117 76V57.8182H252.212V76H250.117ZM258.782 76L253.455 69.2528L254.946 67.7969L261.445 76H258.782ZM264.215 76V62.3636H266.24V64.4233H266.382C266.63 63.7486 267.08 63.2011 267.731 62.7809C268.382 62.3607 269.116 62.1506 269.933 62.1506C270.087 62.1506 270.279 62.1535 270.51 62.1594C270.741 62.1654 270.915 62.1742 271.034 62.1861V64.3168C270.963 64.299 270.8 64.2724 270.545 64.2369C270.297 64.1954 270.033 64.1747 269.755 64.1747C269.092 64.1747 268.501 64.3138 267.98 64.592C267.465 64.8642 267.056 65.243 266.755 65.7283C266.459 66.2077 266.311 66.7552 266.311 67.3707V76H264.215ZM284.602 51.9588V81.8594H282.827V51.9588H284.602ZM299.854 67.7969V76H297.758V57.8182H299.854V64.4943H300.031C300.351 63.79 300.83 63.2307 301.469 62.8164C302.114 62.3962 302.973 62.1861 304.044 62.1861C304.973 62.1861 305.787 62.3725 306.485 62.7454C307.184 63.1123 307.725 63.6776 308.11 64.4411C308.501 65.1986 308.696 66.1634 308.696 67.3352V76H306.601V67.4773C306.601 66.3942 306.32 65.5567 305.757 64.9648C305.201 64.3671 304.429 64.0682 303.44 64.0682C302.754 64.0682 302.138 64.2132 301.594 64.5032C301.055 64.7932 300.629 65.2164 300.315 65.7727C300.007 66.3291 299.854 67.0038 299.854 67.7969ZM318.746 76.2841C317.432 76.2841 316.299 75.9941 315.346 75.4141C314.399 74.8281 313.668 74.0114 313.153 72.9638C312.644 71.9103 312.39 70.6851 312.39 69.2884C312.39 67.8916 312.644 66.6605 313.153 65.5952C313.668 64.5239 314.384 63.6894 315.302 63.0916C316.225 62.4879 317.302 62.1861 318.533 62.1861C319.243 62.1861 319.945 62.3045 320.637 62.5412C321.33 62.7779 321.96 63.1626 322.528 63.6953C323.096 64.2221 323.549 64.9205 323.887 65.7905C324.224 66.6605 324.393 67.7318 324.393 69.0043V69.892H313.881V68.081H322.262C322.262 67.3116 322.108 66.625 321.8 66.0213C321.498 65.4176 321.066 64.9412 320.504 64.592C319.948 64.2428 319.291 64.0682 318.533 64.0682C317.699 64.0682 316.977 64.2753 316.367 64.6896C315.763 65.098 315.299 65.6307 314.973 66.2876C314.648 66.9446 314.485 67.6489 314.485 68.4006V69.608C314.485 70.6378 314.662 71.5108 315.018 72.2269C315.379 72.9371 315.879 73.4787 316.518 73.8516C317.157 74.2185 317.9 74.402 318.746 74.402C319.297 74.402 319.794 74.325 320.238 74.1712C320.688 74.0114 321.075 73.7746 321.401 73.4609C321.726 73.1413 321.978 72.7448 322.155 72.2713L324.18 72.8395C323.966 73.526 323.608 74.1297 323.105 74.6506C322.602 75.1655 321.981 75.5679 321.241 75.858C320.501 76.142 319.67 76.2841 318.746 76.2841ZM330.175 57.8182V76H328.08V57.8182H330.175ZM336.608 57.8182V76H334.512V57.8182H336.608ZM346.485 76.2841C345.254 76.2841 344.174 75.9911 343.244 75.4052C342.321 74.8192 341.599 73.9995 341.078 72.946C340.563 71.8925 340.306 70.6615 340.306 69.2528C340.306 67.8324 340.563 66.5924 341.078 65.533C341.599 64.4736 342.321 63.6509 343.244 63.065C344.174 62.479 345.254 62.1861 346.485 62.1861C347.716 62.1861 348.793 62.479 349.716 63.065C350.645 63.6509 351.368 64.4736 351.882 65.533C352.403 66.5924 352.664 67.8324 352.664 69.2528C352.664 70.6615 352.403 71.8925 351.882 72.946C351.368 73.9995 350.645 74.8192 349.716 75.4052C348.793 75.9911 347.716 76.2841 346.485 76.2841ZM346.485 74.402C347.42 74.402 348.189 74.1623 348.793 73.6829C349.397 73.2035 349.844 72.5732 350.134 71.7919C350.424 71.0107 350.569 70.1643 350.569 69.2528C350.569 68.3414 350.424 67.4921 350.134 66.7049C349.844 65.9177 349.397 65.2815 348.793 64.7962C348.189 64.3108 347.42 64.0682 346.485 64.0682C345.55 64.0682 344.78 64.3108 344.176 64.7962C343.573 65.2815 343.126 65.9177 342.836 66.7049C342.546 67.4921 342.401 68.3414 342.401 69.2528C342.401 70.1643 342.546 71.0107 342.836 71.7919C343.126 72.5732 343.573 73.2035 344.176 73.6829C344.78 74.1623 345.55 74.402 346.485 74.402ZM357.889 76.142C357.451 76.142 357.075 75.9852 356.761 75.6715C356.448 75.3578 356.291 74.982 356.291 74.544C356.291 74.1061 356.448 73.7302 356.761 73.4165C357.075 73.1029 357.451 72.946 357.889 72.946C358.327 72.946 358.703 73.1029 359.016 73.4165C359.33 73.7302 359.487 74.1061 359.487 74.544C359.487 74.834 359.413 75.1004 359.265 75.343C359.123 75.5857 358.931 75.781 358.688 75.929C358.451 76.071 358.185 76.142 357.889 76.142ZM373.051 81.1136V73.9048H372.873C372.719 74.1534 372.5 74.4671 372.216 74.8459C371.932 75.2187 371.527 75.5531 371 75.8491C370.473 76.1391 369.772 76.2841 368.896 76.2841C367.759 76.2841 366.756 75.997 365.886 75.4229C365.016 74.8429 364.336 74.0262 363.844 72.9727C363.353 71.9132 363.108 70.6615 363.108 69.2173C363.108 67.785 363.353 66.5421 363.844 65.4886C364.336 64.4351 365.019 63.6213 365.895 63.0472C366.771 62.4731 367.783 62.1861 368.931 62.1861C369.819 62.1861 370.521 62.334 371.035 62.63C371.556 62.92 371.953 63.2514 372.225 63.6243C372.503 63.9912 372.719 64.2931 372.873 64.5298H373.122V62.3636H375.146V81.1136H373.051ZM369.18 74.402C370.02 74.402 370.731 74.183 371.311 73.745C371.891 73.3011 372.332 72.6886 372.633 71.9073C372.935 71.1201 373.086 70.2116 373.086 69.1818C373.086 68.1638 372.938 67.2731 372.642 66.5096C372.346 65.7402 371.908 65.1424 371.328 64.7163C370.748 64.2842 370.032 64.0682 369.18 64.0682C368.292 64.0682 367.552 64.296 366.96 64.7518C366.375 65.2016 365.934 65.8142 365.638 66.5895C365.348 67.3589 365.203 68.223 365.203 69.1818C365.203 70.1525 365.351 71.0343 365.647 71.8274C365.948 72.6146 366.392 73.242 366.978 73.7095C367.57 74.1712 368.304 74.402 369.18 74.402ZM379.481 76V62.3636H381.505V64.4233H381.647C381.896 63.7486 382.346 63.2011 382.997 62.7809C383.648 62.3607 384.382 62.1506 385.198 62.1506C385.352 62.1506 385.545 62.1535 385.775 62.1594C386.006 62.1654 386.181 62.1742 386.299 62.1861V64.3168C386.228 64.299 386.065 64.2724 385.811 64.2369C385.562 64.1954 385.299 64.1747 385.021 64.1747C384.358 64.1747 383.766 64.3138 383.245 64.592C382.73 64.8642 382.322 65.243 382.02 65.7283C381.724 66.2077 381.576 66.7552 381.576 67.3707V76H379.481ZM398.942 65.4176L397.06 65.9503C396.941 65.6366 396.767 65.3318 396.536 65.0359C396.311 64.734 396.003 64.4854 395.613 64.2901C395.222 64.0948 394.722 63.9972 394.112 63.9972C393.278 63.9972 392.582 64.1895 392.026 64.5742C391.476 64.953 391.2 65.4354 391.2 66.0213C391.2 66.5421 391.39 66.9535 391.769 67.2553C392.147 67.5572 392.739 67.8087 393.544 68.0099L395.568 68.5071C396.788 68.803 397.696 69.2558 398.294 69.8654C398.892 70.4691 399.191 71.2474 399.191 72.2003C399.191 72.9815 398.966 73.6799 398.516 74.2955C398.072 74.911 397.45 75.3963 396.651 75.7514C395.852 76.1065 394.923 76.2841 393.864 76.2841C392.473 76.2841 391.322 75.9822 390.41 75.3786C389.499 74.7749 388.922 73.893 388.679 72.733L390.668 72.2358C390.857 72.9697 391.215 73.5201 391.742 73.8871C392.275 74.254 392.97 74.4375 393.828 74.4375C394.805 74.4375 395.58 74.2304 396.154 73.8161C396.734 73.3958 397.024 72.8928 397.024 72.3068C397.024 71.8333 396.859 71.4368 396.527 71.1172C396.196 70.7917 395.687 70.549 395 70.3892L392.727 69.8565C391.479 69.5606 390.561 69.1019 389.975 68.4805C389.395 67.8531 389.105 67.0689 389.105 66.1278C389.105 65.3584 389.321 64.6778 389.753 64.0859C390.191 63.4941 390.786 63.0295 391.538 62.6921C392.295 62.3548 393.154 62.1861 394.112 62.1861C395.462 62.1861 396.521 62.482 397.291 63.0739C398.066 63.6657 398.616 64.447 398.942 65.4176ZM408.775 62.3636V64.1392H401.708V62.3636H408.775ZM403.768 59.0966H405.863V72.0938C405.863 72.6856 405.949 73.1295 406.12 73.4254C406.298 73.7154 406.523 73.9107 406.795 74.0114C407.073 74.1061 407.366 74.1534 407.674 74.1534C407.905 74.1534 408.094 74.1416 408.242 74.1179C408.39 74.0883 408.508 74.0646 408.597 74.0469L409.023 75.929C408.881 75.9822 408.683 76.0355 408.429 76.0888C408.174 76.148 407.851 76.1776 407.461 76.1776C406.869 76.1776 406.289 76.0503 405.721 75.7958C405.159 75.5413 404.691 75.1536 404.318 74.6328C403.951 74.112 403.768 73.455 403.768 72.6619V59.0966ZM422.902 80.794C421.091 80.794 419.49 80.5455 418.099 80.0483C416.708 79.5571 415.54 78.832 414.593 77.8732C413.646 76.9144 412.929 75.7396 412.444 74.3487C411.959 72.9579 411.716 71.3658 411.716 69.5724C411.716 67.8383 411.962 66.2876 412.453 64.9205C412.95 63.5533 413.669 62.3932 414.61 61.4403C415.557 60.4815 416.706 59.7506 418.055 59.2475C419.41 58.7444 420.943 58.4929 422.654 58.4929C424.317 58.4929 425.773 58.7652 427.022 59.3097C428.276 59.8482 429.324 60.5792 430.164 61.5025C431.011 62.4199 431.644 63.4527 432.064 64.6009C432.49 65.7491 432.703 66.9328 432.703 68.152C432.703 69.0102 432.662 69.8802 432.579 70.7621C432.496 71.6439 432.322 72.4548 432.055 73.1946C431.789 73.9285 431.378 74.5204 430.821 74.9702C430.271 75.42 429.525 75.6449 428.584 75.6449C428.17 75.6449 427.714 75.5798 427.217 75.4496C426.72 75.3194 426.279 75.1033 425.894 74.8015C425.509 74.4996 425.282 74.0942 425.21 73.5852H425.104C424.962 73.9285 424.743 74.254 424.447 74.5618C424.157 74.8696 423.775 75.1152 423.302 75.2987C422.834 75.4821 422.263 75.562 421.588 75.5384C420.819 75.5088 420.141 75.3371 419.555 75.0234C418.969 74.7038 418.478 74.2718 418.082 73.7273C417.691 73.1768 417.395 72.5406 417.194 71.8185C416.998 71.0906 416.901 70.3063 416.901 69.4659C416.901 68.6669 417.019 67.936 417.256 67.2731C417.493 66.6102 417.821 66.0302 418.241 65.533C418.668 65.0359 419.165 64.6393 419.733 64.3434C420.307 64.0415 420.925 63.8551 421.588 63.7841C422.18 63.7249 422.719 63.7515 423.204 63.864C423.689 63.9705 424.089 64.1333 424.403 64.3523C424.716 64.5653 424.915 64.8021 424.997 65.0625H425.104V64.0682H426.986V72.0938C426.986 72.5909 427.125 73.0289 427.403 73.4077C427.681 73.7865 428.087 73.9759 428.62 73.9759C429.223 73.9759 429.685 73.7687 430.005 73.3544C430.33 72.9401 430.552 72.3009 430.67 71.4368C430.795 70.5727 430.857 69.4659 430.857 68.1165C430.857 67.3234 430.747 66.5421 430.528 65.7727C430.315 64.9974 429.99 64.2724 429.552 63.5977C429.12 62.9229 428.572 62.3281 427.909 61.8132C427.246 61.2983 426.468 60.8958 425.574 60.6058C424.687 60.3099 423.678 60.1619 422.547 60.1619C421.156 60.1619 419.91 60.378 418.81 60.81C417.715 61.2362 416.782 61.8606 416.013 62.6832C415.25 63.5 414.667 64.4943 414.264 65.6662C413.868 66.8321 413.669 68.1579 413.669 69.6435C413.669 71.1527 413.868 72.4933 414.264 73.6651C414.667 74.837 415.258 75.8254 416.04 76.6303C416.827 77.4353 417.8 78.0449 418.96 78.4592C420.121 78.8794 421.458 79.0895 422.973 79.0895C423.624 79.0895 424.266 79.0273 424.9 78.9031C425.533 78.7788 426.092 78.6426 426.578 78.4947C427.063 78.3467 427.412 78.2372 427.625 78.1662L428.122 79.7997C427.755 79.9536 427.276 80.1075 426.684 80.2614C426.098 80.4152 425.471 80.5425 424.802 80.6431C424.139 80.7437 423.506 80.794 422.902 80.794ZM421.872 73.7273C422.666 73.7273 423.308 73.5675 423.799 73.2479C424.29 72.9283 424.648 72.4459 424.873 71.8008C425.098 71.1557 425.21 70.3419 425.21 69.3594C425.21 68.3651 425.086 67.5897 424.838 67.0334C424.589 66.477 424.222 66.0864 423.737 65.8615C423.251 65.6366 422.654 65.5241 421.943 65.5241C421.269 65.5241 420.692 65.7017 420.212 66.0568C419.739 66.406 419.375 66.8736 419.12 67.4595C418.872 68.0395 418.747 68.6728 418.747 69.3594C418.747 70.117 418.848 70.8301 419.049 71.4989C419.251 72.1618 419.579 72.7004 420.035 73.1147C420.49 73.5231 421.103 73.7273 421.872 73.7273ZM441.844 81.3977C440.832 81.3977 439.962 81.2675 439.234 81.0071C438.506 80.7526 437.899 80.4152 437.414 79.995C436.934 79.5807 436.553 79.1368 436.268 78.6634L437.938 77.4915C438.127 77.7401 438.367 78.0241 438.657 78.3438C438.947 78.6693 439.343 78.9504 439.846 79.1871C440.355 79.4298 441.021 79.5511 441.844 79.5511C442.945 79.5511 443.853 79.2848 444.569 78.7521C445.285 78.2195 445.643 77.3849 445.643 76.2486V73.4787H445.466C445.312 73.7273 445.093 74.035 444.809 74.402C444.531 74.763 444.128 75.0856 443.602 75.3697C443.081 75.6478 442.376 75.7869 441.489 75.7869C440.388 75.7869 439.399 75.5265 438.523 75.0057C437.653 74.4848 436.964 73.7273 436.455 72.733C435.952 71.7386 435.7 70.5312 435.7 69.1108C435.7 67.714 435.946 66.4978 436.437 65.462C436.928 64.4203 437.612 63.6154 438.488 63.0472C439.364 62.4731 440.376 62.1861 441.524 62.1861C442.412 62.1861 443.116 62.334 443.637 62.63C444.164 62.92 444.566 63.2514 444.844 63.6243C445.129 63.9912 445.348 64.2931 445.501 64.5298H445.714V62.3636H447.739V76.3906C447.739 77.5625 447.472 78.5154 446.94 79.2493C446.413 79.9891 445.703 80.5307 444.809 80.8739C443.921 81.2231 442.933 81.3977 441.844 81.3977ZM441.773 73.9048C442.613 73.9048 443.323 73.7125 443.903 73.3278C444.483 72.9431 444.924 72.3897 445.226 71.6676C445.528 70.9455 445.679 70.0814 445.679 69.0753C445.679 68.0928 445.531 67.2257 445.235 66.4741C444.939 65.7224 444.501 65.1335 443.921 64.7074C443.341 64.2812 442.625 64.0682 441.773 64.0682C440.885 64.0682 440.145 64.2931 439.553 64.7429C438.967 65.1927 438.526 65.7964 438.23 66.554C437.94 67.3116 437.795 68.152 437.795 69.0753C437.795 70.0223 437.943 70.8597 438.239 71.5877C438.541 72.3098 438.985 72.878 439.571 73.2923C440.163 73.7006 440.897 73.9048 441.773 73.9048ZM452.074 76V62.3636H454.098V64.4943H454.276C454.56 63.7663 455.018 63.2011 455.652 62.7987C456.285 62.3903 457.045 62.1861 457.933 62.1861C458.833 62.1861 459.582 62.3903 460.179 62.7987C460.783 63.2011 461.254 63.7663 461.591 64.4943H461.733C462.082 63.79 462.606 63.2307 463.304 62.8164C464.003 62.3962 464.84 62.1861 465.817 62.1861C467.036 62.1861 468.033 62.5678 468.809 63.3313C469.584 64.0889 469.972 65.2696 469.972 66.8736V76H467.876V66.8736C467.876 65.8674 467.601 65.1483 467.051 64.7163C466.5 64.2842 465.852 64.0682 465.107 64.0682C464.148 64.0682 463.405 64.3582 462.878 64.9382C462.351 65.5123 462.088 66.2403 462.088 67.1222V76H459.957V66.6605C459.957 65.8852 459.706 65.2608 459.203 64.7873C458.7 64.3079 458.052 64.0682 457.259 64.0682C456.714 64.0682 456.205 64.2132 455.732 64.5032C455.264 64.7932 454.885 65.1957 454.595 65.7106C454.311 66.2196 454.169 66.8085 454.169 67.4773V76H452.074ZM478.315 76.3196C477.451 76.3196 476.667 76.1568 475.963 75.8313C475.258 75.4999 474.699 75.0234 474.285 74.402C473.87 73.7746 473.663 73.017 473.663 72.1293C473.663 71.348 473.817 70.7147 474.125 70.2294C474.433 69.7382 474.844 69.3535 475.359 69.0753C475.874 68.7971 476.442 68.59 477.063 68.4538C477.691 68.3118 478.321 68.1993 478.954 68.1165C479.783 68.0099 480.455 67.93 480.97 67.8768C481.49 67.8176 481.869 67.7199 482.106 67.5838C482.349 67.4477 482.47 67.2109 482.47 66.8736V66.8026C482.47 65.9266 482.23 65.246 481.751 64.7607C481.277 64.2753 480.558 64.0327 479.594 64.0327C478.593 64.0327 477.809 64.2517 477.241 64.6896C476.673 65.1276 476.273 65.5952 476.042 66.0923L474.054 65.3821C474.409 64.5535 474.882 63.9084 475.474 63.4467C476.072 62.9792 476.723 62.6536 477.427 62.4702C478.138 62.2808 478.836 62.1861 479.523 62.1861C479.961 62.1861 480.464 62.2393 481.032 62.3459C481.606 62.4465 482.159 62.6566 482.692 62.9762C483.231 63.2958 483.677 63.7782 484.032 64.4233C484.388 65.0684 484.565 65.9325 484.565 67.0156V76H482.47V74.1534H482.363C482.221 74.4493 481.985 74.766 481.653 75.1033C481.322 75.4407 480.881 75.7277 480.33 75.9645C479.78 76.2012 479.108 76.3196 478.315 76.3196ZM478.635 74.4375C479.463 74.4375 480.162 74.2747 480.73 73.9492C481.304 73.6237 481.736 73.2035 482.026 72.6886C482.322 72.1737 482.47 71.6321 482.47 71.0639V69.1463C482.381 69.2528 482.186 69.3505 481.884 69.4393C481.588 69.5221 481.245 69.5961 480.854 69.6612C480.47 69.7204 480.094 69.7737 479.727 69.821C479.366 69.8625 479.073 69.898 478.848 69.9276C478.303 69.9986 477.794 70.114 477.321 70.2738C476.853 70.4277 476.474 70.6615 476.184 70.9751C475.9 71.2829 475.758 71.7031 475.758 72.2358C475.758 72.9638 476.028 73.5142 476.566 73.8871C477.111 74.254 477.8 74.4375 478.635 74.4375ZM488.889 76V62.3636H490.984V76H488.889ZM489.955 60.0909C489.546 60.0909 489.194 59.9518 488.898 59.6737C488.608 59.3955 488.463 59.0611 488.463 58.6705C488.463 58.2798 488.608 57.9454 488.898 57.6673C489.194 57.3891 489.546 57.25 489.955 57.25C490.363 57.25 490.712 57.3891 491.002 57.6673C491.298 57.9454 491.446 58.2798 491.446 58.6705C491.446 59.0611 491.298 59.3955 491.002 59.6737C490.712 59.9518 490.363 60.0909 489.955 60.0909ZM497.417 57.8182V76H495.322V57.8182H497.417ZM503.282 76.142C502.844 76.142 502.468 75.9852 502.154 75.6715C501.84 75.3578 501.684 74.982 501.684 74.544C501.684 74.1061 501.84 73.7302 502.154 73.4165C502.468 73.1029 502.844 72.946 503.282 72.946C503.719 72.946 504.095 73.1029 504.409 73.4165C504.723 73.7302 504.88 74.1061 504.88 74.544C504.88 74.834 504.806 75.1004 504.658 75.343C504.516 75.5857 504.323 75.781 504.081 75.929C503.844 76.071 503.577 76.142 503.282 76.142ZM514.679 76.2841C513.401 76.2841 512.3 75.9822 511.377 75.3786C510.453 74.7749 509.743 73.9433 509.246 72.8839C508.749 71.8245 508.5 70.6141 508.5 69.2528C508.5 67.8679 508.755 66.6457 509.264 65.5863C509.778 64.521 510.495 63.6894 511.412 63.0916C512.335 62.4879 513.412 62.1861 514.644 62.1861C515.602 62.1861 516.466 62.3636 517.236 62.7188C518.005 63.0739 518.636 63.571 519.127 64.2102C519.618 64.8494 519.923 65.5952 520.041 66.4474H517.946C517.786 65.826 517.431 65.2756 516.881 64.7962C516.336 64.3108 515.602 64.0682 514.679 64.0682C513.862 64.0682 513.146 64.2812 512.531 64.7074C511.921 65.1276 511.445 65.7224 511.101 66.4918C510.764 67.2553 510.595 68.152 510.595 69.1818C510.595 70.2353 510.761 71.1527 511.092 71.9339C511.43 72.7152 511.903 73.3219 512.513 73.7539C513.128 74.186 513.85 74.402 514.679 74.402C515.224 74.402 515.718 74.3073 516.162 74.1179C516.606 73.9285 516.981 73.6562 517.289 73.3011C517.597 72.946 517.816 72.5199 517.946 72.0227H520.041C519.923 72.8277 519.63 73.5527 519.162 74.1978C518.701 74.837 518.088 75.346 517.325 75.7248C516.567 76.0977 515.685 76.2841 514.679 76.2841ZM529.144 76.2841C527.913 76.2841 526.833 75.9911 525.903 75.4052C524.98 74.8192 524.258 73.9995 523.737 72.946C523.222 71.8925 522.965 70.6615 522.965 69.2528C522.965 67.8324 523.222 66.5924 523.737 65.533C524.258 64.4736 524.98 63.6509 525.903 63.065C526.833 62.479 527.913 62.1861 529.144 62.1861C530.375 62.1861 531.452 62.479 532.375 63.065C533.305 63.6509 534.027 64.4736 534.542 65.533C535.062 66.5924 535.323 67.8324 535.323 69.2528C535.323 70.6615 535.062 71.8925 534.542 72.946C534.027 73.9995 533.305 74.8192 532.375 75.4052C531.452 75.9911 530.375 76.2841 529.144 76.2841ZM529.144 74.402C530.079 74.402 530.848 74.1623 531.452 73.6829C532.056 73.2035 532.503 72.5732 532.793 71.7919C533.083 71.0107 533.228 70.1643 533.228 69.2528C533.228 68.3414 533.083 67.4921 532.793 66.7049C532.503 65.9177 532.056 65.2815 531.452 64.7962C530.848 64.3108 530.079 64.0682 529.144 64.0682C528.209 64.0682 527.439 64.3108 526.836 64.7962C526.232 65.2815 525.785 65.9177 525.495 66.7049C525.205 67.4921 525.06 68.3414 525.06 69.2528C525.06 70.1643 525.205 71.0107 525.495 71.7919C525.785 72.5732 526.232 73.2035 526.836 73.6829C527.439 74.1623 528.209 74.402 529.144 74.402ZM539.021 76V62.3636H541.045V64.4943H541.223C541.507 63.7663 541.966 63.2011 542.599 62.7987C543.232 62.3903 543.993 62.1861 544.881 62.1861C545.78 62.1861 546.529 62.3903 547.127 62.7987C547.73 63.2011 548.201 63.7663 548.538 64.4943H548.68C549.029 63.79 549.553 63.2307 550.252 62.8164C550.95 62.3962 551.787 62.1861 552.764 62.1861C553.983 62.1861 554.981 62.5678 555.756 63.3313C556.531 64.0889 556.919 65.2696 556.919 66.8736V76H554.824V66.8736C554.824 65.8674 554.548 65.1483 553.998 64.7163C553.448 64.2842 552.8 64.0682 552.054 64.0682C551.095 64.0682 550.352 64.3582 549.825 64.9382C549.299 65.5123 549.035 66.2403 549.035 67.1222V76H546.905V66.6605C546.905 65.8852 546.653 65.2608 546.15 64.7873C545.647 64.3079 544.999 64.0682 544.206 64.0682C543.661 64.0682 543.152 64.2132 542.679 64.5032C542.211 64.7932 541.832 65.1957 541.542 65.7106C541.258 66.2196 541.116 66.8085 541.116 67.4773V76H539.021ZM17.3158 98.5H15.1141C14.9839 97.8667 14.756 97.3104 14.4305 96.831C14.1109 96.3516 13.7203 95.9491 13.2586 95.6236C12.8029 95.2921 12.2968 95.0436 11.7405 94.8778C11.1842 94.7121 10.6041 94.6293 10.0004 94.6293C8.89959 94.6293 7.90231 94.9074 7.00861 95.4638C6.12083 96.0201 5.41356 96.8398 4.88681 97.9229C4.36597 99.006 4.10556 100.335 4.10556 101.909C4.10556 103.483 4.36597 104.812 4.88681 105.895C5.41356 106.978 6.12083 107.798 7.00861 108.354C7.90231 108.911 8.89959 109.189 10.0004 109.189C10.6041 109.189 11.1842 109.106 11.7405 108.94C12.2968 108.775 12.8029 108.529 13.2586 108.203C13.7203 107.872 14.1109 107.467 14.4305 106.987C14.756 106.502 14.9839 105.946 15.1141 105.318H17.3158C17.1501 106.247 16.8482 107.079 16.4102 107.813C15.9723 108.547 15.4278 109.171 14.7767 109.686C14.1257 110.195 13.3947 110.583 12.5839 110.849C11.779 111.115 10.9178 111.249 10.0004 111.249C8.44978 111.249 7.07076 110.87 5.86337 110.112C4.65598 109.355 3.70605 108.277 3.01358 106.881C2.32111 105.484 1.97488 103.827 1.97488 101.909C1.97488 99.9915 2.32111 98.3343 3.01358 96.9375C3.70605 95.5407 4.65598 94.4635 5.86337 93.706C7.07076 92.9484 8.44978 92.5696 10.0004 92.5696C10.9178 92.5696 11.779 92.7028 12.5839 92.9691C13.3947 93.2354 14.1257 93.6261 14.7767 94.141C15.4278 94.65 15.9723 95.2714 16.4102 96.0053C16.8482 96.7333 17.1501 97.5649 17.3158 98.5ZM36.7145 101.909C36.7145 103.827 36.3683 105.484 35.6758 106.881C34.9833 108.277 34.0334 109.355 32.826 110.112C31.6186 110.87 30.2396 111.249 28.6889 111.249C27.1383 111.249 25.7592 110.87 24.5518 110.112C23.3445 109.355 22.3945 108.277 21.7021 106.881C21.0096 105.484 20.6634 103.827 20.6634 101.909C20.6634 99.9915 21.0096 98.3343 21.7021 96.9375C22.3945 95.5407 23.3445 94.4635 24.5518 93.706C25.7592 92.9484 27.1383 92.5696 28.6889 92.5696C30.2396 92.5696 31.6186 92.9484 32.826 93.706C34.0334 94.4635 34.9833 95.5407 35.6758 96.9375C36.3683 98.3343 36.7145 99.9915 36.7145 101.909ZM34.5838 101.909C34.5838 100.335 34.3204 99.006 33.7937 97.9229C33.2728 96.8398 32.5656 96.0201 31.6719 95.4638C30.7841 94.9074 29.7898 94.6293 28.6889 94.6293C27.5881 94.6293 26.5908 94.9074 25.6971 95.4638C24.8093 96.0201 24.102 96.8398 23.5753 97.9229C23.0545 99.006 22.794 100.335 22.794 101.909C22.794 103.483 23.0545 104.812 23.5753 105.895C24.102 106.978 24.8093 107.798 25.6971 108.354C26.5908 108.911 27.5881 109.189 28.6889 109.189C29.7898 109.189 30.7841 108.911 31.6719 108.354C32.5656 107.798 33.2728 106.978 33.7937 105.895C34.3204 104.812 34.5838 103.483 34.5838 101.909ZM40.9165 111V92.8182H47.06C48.4864 92.8182 49.6523 93.0756 50.5579 93.5906C51.4693 94.0996 52.1441 94.7891 52.582 95.6591C53.02 96.5291 53.239 97.4998 53.239 98.571C53.239 99.6423 53.02 100.616 52.582 101.492C52.15 102.368 51.4812 103.066 50.5756 103.587C49.6701 104.102 48.5101 104.359 47.0955 104.359H42.6921V102.406H47.0245C48.0011 102.406 48.7853 102.238 49.3771 101.9C49.969 101.563 50.3981 101.107 50.6644 100.533C50.9367 99.953 51.0728 99.299 51.0728 98.571C51.0728 97.843 50.9367 97.192 50.6644 96.6179C50.3981 96.0438 49.966 95.594 49.3683 95.2685C48.7705 94.937 47.9774 94.7713 46.989 94.7713H43.1183V111H40.9165ZM55.7232 92.8182H58.2445L63.2871 101.305H63.5002L68.5428 92.8182H71.0641L64.4945 103.507V111H62.2928V103.507L55.7232 92.8182ZM74.4117 111V92.8182H80.5551C81.9756 92.8182 83.1415 93.0608 84.053 93.5462C84.9645 94.0256 85.6392 94.6855 86.0771 95.5259C86.5151 96.3664 86.7341 97.3222 86.7341 98.3935C86.7341 99.4647 86.5151 100.415 86.0771 101.243C85.6392 102.072 84.9674 102.723 84.0619 103.196C83.1563 103.664 81.9993 103.898 80.5906 103.898H75.6191V101.909H80.5196C81.4903 101.909 82.2715 101.767 82.8634 101.483C83.4611 101.199 83.8932 100.796 84.1595 100.276C84.4318 99.7488 84.5679 99.1214 84.5679 98.3935C84.5679 97.6655 84.4318 97.0292 84.1595 96.4847C83.8873 95.9402 83.4523 95.52 82.8545 95.2241C82.2567 94.9222 81.4666 94.7713 80.4841 94.7713H76.6134V111H74.4117ZM82.9699 102.832L87.4443 111H84.8875L80.4841 102.832H82.9699ZM93.1046 92.8182V111H90.9029V92.8182H93.1046ZM110.448 98.5C110.253 97.9022 109.995 97.3666 109.676 96.8931C109.362 96.4137 108.986 96.0053 108.548 95.668C108.116 95.3306 107.625 95.0732 107.074 94.8956C106.524 94.718 105.92 94.6293 105.263 94.6293C104.186 94.6293 103.207 94.9074 102.325 95.4638C101.443 96.0201 100.742 96.8398 100.221 97.9229C99.7 99.006 99.4395 100.335 99.4395 101.909C99.4395 103.483 99.7029 104.812 100.23 105.895C100.756 106.978 101.47 107.798 102.369 108.354C103.269 108.911 104.281 109.189 105.405 109.189C106.447 109.189 107.364 108.967 108.158 108.523C108.957 108.073 109.578 107.44 110.022 106.623C110.472 105.801 110.697 104.833 110.697 103.72L111.371 103.862H105.903V101.909H112.827V103.862C112.827 105.36 112.508 106.662 111.869 107.768C111.235 108.875 110.359 109.733 109.241 110.343C108.128 110.947 106.85 111.249 105.405 111.249C103.796 111.249 102.381 110.87 101.162 110.112C99.9485 109.355 99.0016 108.277 98.3209 106.881C97.6462 105.484 97.3089 103.827 97.3089 101.909C97.3089 100.471 97.5012 99.1777 97.8859 98.0295C98.2765 96.8754 98.827 95.8929 99.5372 95.082C100.247 94.2712 101.088 93.6497 102.059 93.2177C103.029 92.7856 104.097 92.5696 105.263 92.5696C106.222 92.5696 107.116 92.7146 107.945 93.0046C108.779 93.2887 109.522 93.6941 110.173 94.2209C110.83 94.7417 111.377 95.3661 111.815 96.0941C112.253 96.8162 112.555 97.6181 112.721 98.5H110.448ZM117.098 111V92.8182H119.3V100.915H128.994V92.8182H131.196V111H128.994V102.868H119.3V111H117.098ZM135.11 94.7713V92.8182H148.746V94.7713H143.029V111H140.827V94.7713H135.11ZM163.617 106.25C162.417 106.25 161.484 105.883 160.817 105.15C160.151 104.417 159.817 103.4 159.817 102.1C159.817 100.767 160.159 99.7417 160.842 99.025C161.542 98.2917 162.501 97.925 163.717 97.925C164.117 97.925 164.501 97.9667 164.867 98.05C165.251 98.1167 165.626 98.2333 165.992 98.4L165.567 99.65C165.251 99.5167 164.934 99.4167 164.617 99.35C164.317 99.2833 164.009 99.25 163.692 99.25C162.959 99.25 162.401 99.4917 162.017 99.975C161.651 100.442 161.467 101.15 161.467 102.1C161.467 103 161.651 103.7 162.017 104.2C162.384 104.683 162.917 104.925 163.617 104.925C163.951 104.925 164.301 104.883 164.667 104.8C165.051 104.7 165.451 104.567 165.867 104.4V105.75C165.467 105.917 165.084 106.042 164.717 106.125C164.351 106.208 163.984 106.25 163.617 106.25ZM162.942 112.375C161.526 112.375 160.192 112.108 158.942 111.575C157.692 111.042 156.592 110.308 155.642 109.375C154.709 108.425 153.976 107.325 153.442 106.075C152.909 104.825 152.642 103.492 152.642 102.075C152.642 100.642 152.909 99.3083 153.442 98.075C153.976 96.825 154.709 95.7333 155.642 94.8C156.592 93.85 157.692 93.1083 158.942 92.575C160.192 92.0417 161.526 91.775 162.942 91.775C164.376 91.775 165.709 92.0417 166.942 92.575C168.192 93.1083 169.284 93.85 170.217 94.8C171.167 95.7333 171.909 96.825 172.442 98.075C172.976 99.3083 173.242 100.642 173.242 102.075C173.242 103.492 172.976 104.825 172.442 106.075C171.909 107.325 171.167 108.425 170.217 109.375C169.284 110.308 168.192 111.042 166.942 111.575C165.709 112.108 164.376 112.375 162.942 112.375ZM162.942 110.975C164.176 110.975 165.326 110.75 166.392 110.3C167.476 109.833 168.426 109.192 169.242 108.375C170.059 107.558 170.692 106.617 171.142 105.55C171.609 104.467 171.842 103.308 171.842 102.075C171.842 100.842 171.609 99.6917 171.142 98.625C170.692 97.5417 170.059 96.5917 169.242 95.775C168.426 94.9583 167.476 94.325 166.392 93.875C165.326 93.4083 164.176 93.175 162.942 93.175C161.709 93.175 160.551 93.4083 159.467 93.875C158.401 94.325 157.459 94.9583 156.642 95.775C155.826 96.5917 155.184 97.5417 154.717 98.625C154.267 99.6917 154.042 100.842 154.042 102.075C154.042 103.308 154.267 104.467 154.717 105.55C155.184 106.617 155.826 107.558 156.642 108.375C157.459 109.192 158.401 109.833 159.467 110.3C160.551 110.75 161.709 110.975 162.942 110.975ZM200.306 98.5H198.104C197.974 97.8667 197.746 97.3104 197.421 96.831C197.101 96.3516 196.71 95.9491 196.249 95.6236C195.793 95.2921 195.287 95.0436 194.731 94.8778C194.174 94.7121 193.594 94.6293 192.991 94.6293C191.89 94.6293 190.893 94.9074 189.999 95.4638C189.111 96.0201 188.404 96.8398 187.877 97.9229C187.356 99.006 187.096 100.335 187.096 101.909C187.096 103.483 187.356 104.812 187.877 105.895C188.404 106.978 189.111 107.798 189.999 108.354C190.893 108.911 191.89 109.189 192.991 109.189C193.594 109.189 194.174 109.106 194.731 108.94C195.287 108.775 195.793 108.529 196.249 108.203C196.71 107.872 197.101 107.467 197.421 106.987C197.746 106.502 197.974 105.946 198.104 105.318H200.306C200.14 106.247 199.838 107.079 199.4 107.813C198.963 108.547 198.418 109.171 197.767 109.686C197.116 110.195 196.385 110.583 195.574 110.849C194.769 111.115 193.908 111.249 192.991 111.249C191.44 111.249 190.061 110.87 188.854 110.112C187.646 109.355 186.696 108.277 186.004 106.881C185.311 105.484 184.965 103.827 184.965 101.909C184.965 99.9915 185.311 98.3343 186.004 96.9375C186.696 95.5407 187.646 94.4635 188.854 93.706C190.061 92.9484 191.44 92.5696 192.991 92.5696C193.908 92.5696 194.769 92.7028 195.574 92.9691C196.385 93.2354 197.116 93.6261 197.767 94.141C198.418 94.65 198.963 95.2714 199.4 96.0053C199.838 96.7333 200.14 97.5649 200.306 98.5ZM209.619 111.284C208.388 111.284 207.308 110.991 206.379 110.405C205.456 109.819 204.734 109 204.213 107.946C203.698 106.893 203.441 105.661 203.441 104.253C203.441 102.832 203.698 101.592 204.213 100.533C204.734 99.4736 205.456 98.6509 206.379 98.065C207.308 97.479 208.388 97.1861 209.619 97.1861C210.851 97.1861 211.928 97.479 212.851 98.065C213.78 98.6509 214.502 99.4736 215.017 100.533C215.538 101.592 215.798 102.832 215.798 104.253C215.798 105.661 215.538 106.893 215.017 107.946C214.502 109 213.78 109.819 212.851 110.405C211.928 110.991 210.851 111.284 209.619 111.284ZM209.619 109.402C210.555 109.402 211.324 109.162 211.928 108.683C212.531 108.203 212.978 107.573 213.268 106.792C213.558 106.011 213.703 105.164 213.703 104.253C213.703 103.341 213.558 102.492 213.268 101.705C212.978 100.918 212.531 100.281 211.928 99.7962C211.324 99.3108 210.555 99.0682 209.619 99.0682C208.684 99.0682 207.915 99.3108 207.311 99.7962C206.708 100.281 206.261 100.918 205.971 101.705C205.681 102.492 205.536 103.341 205.536 104.253C205.536 105.164 205.681 106.011 205.971 106.792C206.261 107.573 206.708 108.203 207.311 108.683C207.915 109.162 208.684 109.402 209.619 109.402ZM221.592 92.8182V111H219.497V92.8182H221.592ZM228.025 92.8182V111H225.929V92.8182H228.025ZM238.079 111.284C236.765 111.284 235.632 110.994 234.679 110.414C233.732 109.828 233.001 109.011 232.486 107.964C231.977 106.91 231.723 105.685 231.723 104.288C231.723 102.892 231.977 101.661 232.486 100.595C233.001 99.5239 233.717 98.6894 234.635 98.0916C235.558 97.4879 236.635 97.1861 237.866 97.1861C238.576 97.1861 239.278 97.3045 239.97 97.5412C240.663 97.7779 241.293 98.1626 241.861 98.6953C242.429 99.2221 242.882 99.9205 243.22 100.79C243.557 101.661 243.726 102.732 243.726 104.004V104.892H233.214V103.081H241.595C241.595 102.312 241.441 101.625 241.133 101.021C240.831 100.418 240.399 99.9412 239.837 99.592C239.281 99.2428 238.624 99.0682 237.866 99.0682C237.032 99.0682 236.31 99.2753 235.7 99.6896C235.096 100.098 234.632 100.631 234.306 101.288C233.981 101.945 233.818 102.649 233.818 103.401V104.608C233.818 105.638 233.995 106.511 234.351 107.227C234.712 107.937 235.212 108.479 235.851 108.852C236.49 109.219 237.233 109.402 238.079 109.402C238.63 109.402 239.127 109.325 239.571 109.171C240.021 109.011 240.408 108.775 240.734 108.461C241.059 108.141 241.311 107.745 241.488 107.271L243.513 107.839C243.299 108.526 242.941 109.13 242.438 109.651C241.935 110.165 241.314 110.568 240.574 110.858C239.834 111.142 239.003 111.284 238.079 111.284ZM252.953 111.284C251.674 111.284 250.573 110.982 249.65 110.379C248.727 109.775 248.016 108.943 247.519 107.884C247.022 106.824 246.774 105.614 246.774 104.253C246.774 102.868 247.028 101.646 247.537 100.586C248.052 99.521 248.768 98.6894 249.685 98.0916C250.609 97.4879 251.686 97.1861 252.917 97.1861C253.876 97.1861 254.74 97.3636 255.509 97.7188C256.279 98.0739 256.909 98.571 257.4 99.2102C257.892 99.8494 258.196 100.595 258.315 101.447H256.22C256.06 100.826 255.705 100.276 255.154 99.7962C254.61 99.3108 253.876 99.0682 252.953 99.0682C252.136 99.0682 251.42 99.2812 250.804 99.7074C250.194 100.128 249.718 100.722 249.375 101.492C249.037 102.255 248.869 103.152 248.869 104.182C248.869 105.235 249.034 106.153 249.366 106.934C249.703 107.715 250.177 108.322 250.786 108.754C251.402 109.186 252.124 109.402 252.953 109.402C253.497 109.402 253.991 109.307 254.435 109.118C254.879 108.929 255.255 108.656 255.563 108.301C255.87 107.946 256.089 107.52 256.22 107.023H258.315C258.196 107.828 257.903 108.553 257.436 109.198C256.974 109.837 256.362 110.346 255.598 110.725C254.841 111.098 253.959 111.284 252.953 111.284ZM267.808 97.3636V99.1392H260.741V97.3636H267.808ZM262.801 94.0966H264.896V107.094C264.896 107.686 264.982 108.129 265.153 108.425C265.331 108.715 265.556 108.911 265.828 109.011C266.106 109.106 266.399 109.153 266.707 109.153C266.938 109.153 267.127 109.142 267.275 109.118C267.423 109.088 267.542 109.065 267.63 109.047L268.057 110.929C267.915 110.982 267.716 111.036 267.462 111.089C267.207 111.148 266.885 111.178 266.494 111.178C265.902 111.178 265.322 111.05 264.754 110.796C264.192 110.541 263.724 110.154 263.351 109.633C262.984 109.112 262.801 108.455 262.801 107.662V94.0966ZM271.46 111V97.3636H273.555V111H271.46ZM272.525 95.0909C272.117 95.0909 271.764 94.9518 271.468 94.6737C271.178 94.3955 271.033 94.0611 271.033 93.6705C271.033 93.2798 271.178 92.9454 271.468 92.6673C271.764 92.3891 272.117 92.25 272.525 92.25C272.933 92.25 273.283 92.3891 273.573 92.6673C273.868 92.9454 274.016 93.2798 274.016 93.6705C274.016 94.0611 273.868 94.3955 273.573 94.6737C273.283 94.9518 272.933 95.0909 272.525 95.0909ZM289.043 97.3636L284 111H281.869L276.827 97.3636H279.1L282.864 108.23H283.006L286.77 97.3636H289.043ZM297.537 111.284C296.223 111.284 295.09 110.994 294.137 110.414C293.19 109.828 292.459 109.011 291.944 107.964C291.435 106.91 291.181 105.685 291.181 104.288C291.181 102.892 291.435 101.661 291.944 100.595C292.459 99.5239 293.175 98.6894 294.093 98.0916C295.016 97.4879 296.093 97.1861 297.324 97.1861C298.034 97.1861 298.736 97.3045 299.428 97.5412C300.121 97.7779 300.751 98.1626 301.319 98.6953C301.887 99.2221 302.34 99.9205 302.678 100.79C303.015 101.661 303.184 102.732 303.184 104.004V104.892H292.672V103.081H301.053C301.053 102.312 300.899 101.625 300.591 101.021C300.289 100.418 299.857 99.9412 299.295 99.592C298.739 99.2428 298.082 99.0682 297.324 99.0682C296.49 99.0682 295.768 99.2753 295.158 99.6896C294.554 100.098 294.09 100.631 293.764 101.288C293.439 101.945 293.276 102.649 293.276 103.401V104.608C293.276 105.638 293.453 106.511 293.809 107.227C294.17 107.937 294.67 108.479 295.309 108.852C295.948 109.219 296.691 109.402 297.537 109.402C298.088 109.402 298.585 109.325 299.029 109.171C299.479 109.011 299.866 108.775 300.192 108.461C300.517 108.141 300.769 107.745 300.946 107.271L302.971 107.839C302.757 108.526 302.399 109.13 301.896 109.651C301.393 110.165 300.772 110.568 300.032 110.858C299.292 111.142 298.461 111.284 297.537 111.284ZM321.291 105.318H323.706L325.73 107.982L326.263 108.692L329.281 112.705H326.866L324.878 110.041L324.381 109.366L321.291 105.318ZM330.027 101.909C330.027 103.827 329.681 105.484 328.988 106.881C328.296 108.277 327.346 109.355 326.138 110.112C324.931 110.87 323.552 111.249 322.001 111.249C320.451 111.249 319.072 110.87 317.864 110.112C316.657 109.355 315.707 108.277 315.015 106.881C314.322 105.484 313.976 103.827 313.976 101.909C313.976 99.9915 314.322 98.3343 315.015 96.9375C315.707 95.5407 316.657 94.4635 317.864 93.706C319.072 92.9484 320.451 92.5696 322.001 92.5696C323.552 92.5696 324.931 92.9484 326.138 93.706C327.346 94.4635 328.296 95.5407 328.988 96.9375C329.681 98.3343 330.027 99.9915 330.027 101.909ZM327.896 101.909C327.896 100.335 327.633 99.006 327.106 97.9229C326.585 96.8398 325.878 96.0201 324.984 95.4638C324.097 94.9074 323.102 94.6293 322.001 94.6293C320.901 94.6293 319.903 94.9074 319.01 95.4638C318.122 96.0201 317.415 96.8398 316.888 97.9229C316.367 99.006 316.107 100.335 316.107 101.909C316.107 103.483 316.367 104.812 316.888 105.895C317.415 106.978 318.122 107.798 319.01 108.354C319.903 108.911 320.901 109.189 322.001 109.189C323.102 109.189 324.097 108.911 324.984 108.354C325.878 107.798 326.585 106.978 327.106 105.895C327.633 104.812 327.896 103.483 327.896 101.909ZM334.229 111V92.8182H340.373C341.793 92.8182 342.959 93.0608 343.87 93.5462C344.782 94.0256 345.457 94.6855 345.895 95.5259C346.333 96.3664 346.551 97.3222 346.551 98.3935C346.551 99.4647 346.333 100.415 345.895 101.243C345.457 102.072 344.785 102.723 343.879 103.196C342.974 103.664 341.817 103.898 340.408 103.898H335.436V101.909H340.337C341.308 101.909 342.089 101.767 342.681 101.483C343.279 101.199 343.711 100.796 343.977 100.276C344.249 99.7488 344.385 99.1214 344.385 98.3935C344.385 97.6655 344.249 97.0292 343.977 96.4847C343.705 95.9402 343.27 95.52 342.672 95.2241C342.074 94.9222 341.284 94.7713 340.301 94.7713H336.431V111H334.229ZM342.787 102.832L347.262 111H344.705L340.301 102.832H342.787ZM360.663 97.3636C360.557 96.464 360.125 95.7656 359.367 95.2685C358.61 94.7713 357.68 94.5227 356.58 94.5227C355.775 94.5227 355.07 94.6529 354.467 94.9134C353.869 95.1738 353.401 95.5318 353.064 95.9876C352.733 96.4433 352.567 96.9612 352.567 97.5412C352.567 98.0265 352.682 98.4438 352.913 98.793C353.15 99.1362 353.452 99.4233 353.819 99.6541C354.186 99.879 354.57 100.065 354.973 100.213C355.375 100.355 355.745 100.471 356.082 100.56L357.929 101.057C358.403 101.181 358.929 101.353 359.509 101.572C360.095 101.791 360.655 102.09 361.187 102.468C361.726 102.841 362.17 103.321 362.519 103.907C362.868 104.493 363.043 105.212 363.043 106.064C363.043 107.046 362.785 107.934 362.27 108.727C361.761 109.52 361.016 110.151 360.033 110.618C359.057 111.086 357.87 111.32 356.473 111.32C355.171 111.32 354.044 111.109 353.091 110.689C352.144 110.269 351.398 109.683 350.853 108.931C350.315 108.18 350.01 107.307 349.939 106.312H352.212C352.271 106.999 352.502 107.567 352.904 108.017C353.313 108.461 353.828 108.792 354.449 109.011C355.076 109.224 355.751 109.331 356.473 109.331C357.314 109.331 358.068 109.195 358.737 108.923C359.406 108.644 359.935 108.26 360.326 107.768C360.717 107.271 360.912 106.691 360.912 106.028C360.912 105.425 360.743 104.933 360.406 104.555C360.069 104.176 359.625 103.868 359.074 103.631C358.524 103.395 357.929 103.187 357.29 103.01L355.053 102.371C353.632 101.962 352.508 101.379 351.679 100.622C350.85 99.8642 350.436 98.8729 350.436 97.6477C350.436 96.6297 350.711 95.742 351.262 94.9844C351.818 94.2209 352.564 93.629 353.499 93.2088C354.44 92.7827 355.491 92.5696 356.651 92.5696C357.823 92.5696 358.864 92.7797 359.776 93.1999C360.687 93.6142 361.409 94.1824 361.942 94.9045C362.48 95.6265 362.765 96.4463 362.794 97.3636H360.663ZM366.168 94.7713V92.8182H379.805V94.7713H374.087V111H371.886V94.7713H366.168ZM384.091 111.142C383.653 111.142 383.277 110.985 382.964 110.672C382.65 110.358 382.493 109.982 382.493 109.544C382.493 109.106 382.65 108.73 382.964 108.417C383.277 108.103 383.653 107.946 384.091 107.946C384.529 107.946 384.905 108.103 385.219 108.417C385.532 108.73 385.689 109.106 385.689 109.544C385.689 109.834 385.615 110.1 385.467 110.343C385.325 110.586 385.133 110.781 384.89 110.929C384.653 111.071 384.387 111.142 384.091 111.142ZM398.51 111H396.202L402.878 92.8182H405.151L411.827 111H409.518L404.085 95.6946H403.943L398.51 111ZM399.362 103.898H408.666V105.851H399.362V103.898ZM415.159 111V92.8182H417.36V109.047H425.812V111H415.159ZM429.721 111V92.8182H431.923V109.047H440.375V111H429.721ZM451.815 111V92.8182H457.958C459.379 92.8182 460.545 93.0608 461.456 93.5462C462.368 94.0256 463.042 94.6855 463.48 95.5259C463.918 96.3664 464.137 97.3222 464.137 98.3935C464.137 99.4647 463.918 100.415 463.48 101.243C463.042 102.072 462.371 102.723 461.465 103.196C460.56 103.664 459.403 103.898 457.994 103.898H453.022V101.909H457.923C458.894 101.909 459.675 101.767 460.267 101.483C460.864 101.199 461.297 100.796 461.563 100.276C461.835 99.7488 461.971 99.1214 461.971 98.3935C461.971 97.6655 461.835 97.0292 461.563 96.4847C461.291 95.9402 460.856 95.52 460.258 95.2241C459.66 94.9222 458.87 94.7713 457.887 94.7713H454.017V111H451.815ZM460.373 102.832L464.848 111H462.291L457.887 102.832H460.373ZM470.508 92.8182V111H468.306V92.8182H470.508ZM487.851 98.5C487.656 97.9022 487.399 97.3666 487.079 96.8931C486.765 96.4137 486.39 96.0053 485.952 95.668C485.519 95.3306 485.028 95.0732 484.478 94.8956C483.927 94.718 483.324 94.6293 482.667 94.6293C481.59 94.6293 480.61 94.9074 479.728 95.4638C478.846 96.0201 478.145 96.8398 477.624 97.9229C477.103 99.006 476.843 100.335 476.843 101.909C476.843 103.483 477.106 104.812 477.633 105.895C478.16 106.978 478.873 107.798 479.773 108.354C480.672 108.911 481.684 109.189 482.809 109.189C483.85 109.189 484.768 108.967 485.561 108.523C486.36 108.073 486.981 107.44 487.425 106.623C487.875 105.801 488.1 104.833 488.1 103.72L488.775 103.862H483.306V101.909H490.231V103.862C490.231 105.36 489.911 106.662 489.272 107.768C488.639 108.875 487.763 109.733 486.644 110.343C485.531 110.947 484.253 111.249 482.809 111.249C481.199 111.249 479.784 110.87 478.565 110.112C477.352 109.355 476.405 108.277 475.724 106.881C475.05 105.484 474.712 103.827 474.712 101.909C474.712 100.471 474.905 99.1777 475.289 98.0295C475.68 96.8754 476.23 95.8929 476.941 95.082C477.651 94.2712 478.491 93.6497 479.462 93.2177C480.432 92.7856 481.501 92.5696 482.667 92.5696C483.626 92.5696 484.519 92.7146 485.348 93.0046C486.182 93.2887 486.925 93.6941 487.576 94.2209C488.233 94.7417 488.781 95.3661 489.219 96.0941C489.657 96.8162 489.958 97.6181 490.124 98.5H487.851ZM494.502 111V92.8182H496.703V100.915H506.398V92.8182H508.6V111H506.398V102.868H496.703V111H494.502ZM512.513 94.7713V92.8182H526.149V94.7713H520.432V111H518.23V94.7713H512.513ZM539.991 97.3636C539.884 96.464 539.452 95.7656 538.694 95.2685C537.937 94.7713 537.008 94.5227 535.907 94.5227C535.102 94.5227 534.398 94.6529 533.794 94.9134C533.196 95.1738 532.729 95.5318 532.391 95.9876C532.06 96.4433 531.894 96.9612 531.894 97.5412C531.894 98.0265 532.009 98.4438 532.24 98.793C532.477 99.1362 532.779 99.4233 533.146 99.6541C533.513 99.879 533.897 100.065 534.3 100.213C534.702 100.355 535.072 100.471 535.41 100.56L537.256 101.057C537.73 101.181 538.256 101.353 538.836 101.572C539.422 101.791 539.982 102.09 540.514 102.468C541.053 102.841 541.497 103.321 541.846 103.907C542.195 104.493 542.37 105.212 542.37 106.064C542.37 107.046 542.112 107.934 541.597 108.727C541.088 109.52 540.343 110.151 539.36 110.618C538.384 111.086 537.197 111.32 535.8 111.32C534.498 111.32 533.371 111.109 532.418 110.689C531.471 110.269 530.725 109.683 530.181 108.931C529.642 108.18 529.337 107.307 529.266 106.312H531.539C531.598 106.999 531.829 107.567 532.231 108.017C532.64 108.461 533.155 108.792 533.776 109.011C534.403 109.224 535.078 109.331 535.8 109.331C536.641 109.331 537.395 109.195 538.064 108.923C538.733 108.644 539.263 108.26 539.653 107.768C540.044 107.271 540.239 106.691 540.239 106.028C540.239 105.425 540.07 104.933 539.733 104.555C539.396 104.176 538.952 103.868 538.401 103.631C537.851 103.395 537.256 103.187 536.617 103.01L534.38 102.371C532.959 101.962 531.835 101.379 531.006 100.622C530.178 99.8642 529.763 98.8729 529.763 97.6477C529.763 96.6297 530.039 95.742 530.589 94.9844C531.145 94.2209 531.891 93.629 532.826 93.2088C533.767 92.7827 534.818 92.5696 535.978 92.5696C537.15 92.5696 538.191 92.7797 539.103 93.1999C540.014 93.6142 540.736 94.1824 541.269 94.9045C541.808 95.6265 542.092 96.4463 542.121 97.3636H539.991ZM554.021 111V92.8182H560.165C561.585 92.8182 562.751 93.0608 563.662 93.5462C564.574 94.0256 565.249 94.6855 565.687 95.5259C566.124 96.3664 566.343 97.3222 566.343 98.3935C566.343 99.4647 566.124 100.415 565.687 101.243C565.249 102.072 564.577 102.723 563.671 103.196C562.766 103.664 561.609 103.898 560.2 103.898H555.228V101.909H560.129C561.1 101.909 561.881 101.767 562.473 101.483C563.071 101.199 563.503 100.796 563.769 100.276C564.041 99.7488 564.177 99.1214 564.177 98.3935C564.177 97.6655 564.041 97.0292 563.769 96.4847C563.497 95.9402 563.062 95.52 562.464 95.2241C561.866 94.9222 561.076 94.7713 560.093 94.7713H556.223V111H554.021ZM562.579 102.832L567.054 111H564.497L560.093 102.832H562.579ZM570.512 111V92.8182H581.485V94.7713H572.714V100.915H580.917V102.868H572.714V109.047H581.627V111H570.512ZM595.897 97.3636C595.79 96.464 595.358 95.7656 594.601 95.2685C593.843 94.7713 592.914 94.5227 591.813 94.5227C591.008 94.5227 590.304 94.6529 589.7 94.9134C589.102 95.1738 588.635 95.5318 588.297 95.9876C587.966 96.4433 587.8 96.9612 587.8 97.5412C587.8 98.0265 587.916 98.4438 588.146 98.793C588.383 99.1362 588.685 99.4233 589.052 99.6541C589.419 99.879 589.804 100.065 590.206 100.213C590.609 100.355 590.979 100.471 591.316 100.56L593.162 101.057C593.636 101.181 594.163 101.353 594.743 101.572C595.329 101.791 595.888 102.09 596.421 102.468C596.959 102.841 597.403 103.321 597.752 103.907C598.102 104.493 598.276 105.212 598.276 106.064C598.276 107.046 598.019 107.934 597.504 108.727C596.995 109.52 596.249 110.151 595.267 110.618C594.29 111.086 593.103 111.32 591.706 111.32C590.404 111.32 589.277 111.109 588.324 110.689C587.377 110.269 586.631 109.683 586.087 108.931C585.548 108.18 585.243 107.307 585.172 106.312H587.445C587.504 106.999 587.735 107.567 588.138 108.017C588.546 108.461 589.061 108.792 589.682 109.011C590.31 109.224 590.984 109.331 591.706 109.331C592.547 109.331 593.302 109.195 593.97 108.923C594.639 108.644 595.169 108.26 595.559 107.768C595.95 107.271 596.145 106.691 596.145 106.028C596.145 105.425 595.977 104.933 595.639 104.555C595.302 104.176 594.858 103.868 594.308 103.631C593.757 103.395 593.162 103.187 592.523 103.01L590.286 102.371C588.866 101.962 587.741 101.379 586.912 100.622C586.084 99.8642 585.67 98.8729 585.67 97.6477C585.67 96.6297 585.945 95.742 586.495 94.9844C587.052 94.2209 587.797 93.629 588.732 93.2088C589.673 92.7827 590.724 92.5696 591.884 92.5696C593.056 92.5696 594.098 92.7797 595.009 93.1999C595.921 93.6142 596.643 94.1824 597.175 94.9045C597.714 95.6265 597.998 96.4463 598.028 97.3636H595.897ZM602.396 111V92.8182H613.369V94.7713H604.598V100.915H612.801V102.868H604.598V109.047H613.511V111H602.396ZM617.837 111V92.8182H623.981C625.401 92.8182 626.567 93.0608 627.479 93.5462C628.39 94.0256 629.065 94.6855 629.503 95.5259C629.941 96.3664 630.16 97.3222 630.16 98.3935C630.16 99.4647 629.941 100.415 629.503 101.243C629.065 102.072 628.393 102.723 627.488 103.196C626.582 103.664 625.425 103.898 624.016 103.898H619.045V101.909H623.945C624.916 101.909 625.697 101.767 626.289 101.483C626.887 101.199 627.319 100.796 627.585 100.276C627.858 99.7488 627.994 99.1214 627.994 98.3935C627.994 97.6655 627.858 97.0292 627.585 96.4847C627.313 95.9402 626.878 95.52 626.28 95.2241C625.682 94.9222 624.892 94.7713 623.91 94.7713H620.039V111H617.837ZM626.396 102.832L630.87 111H628.313L623.91 102.832H626.396ZM634.659 92.8182L640.057 108.124H640.27L645.668 92.8182H647.976L641.3 111H639.027L632.351 92.8182H634.659ZM651.308 111V92.8182H662.281V94.7713H653.51V100.915H661.713V102.868H653.51V109.047H662.423V111H651.308ZM672.36 111H666.75V92.8182H672.609C674.373 92.8182 675.882 93.1822 677.137 93.9102C678.391 94.6322 679.353 95.6709 680.022 97.0263C680.691 98.3757 681.025 99.9915 681.025 101.874C681.025 103.768 680.688 105.398 680.013 106.765C679.338 108.127 678.356 109.174 677.066 109.908C675.775 110.636 674.207 111 672.36 111ZM668.951 109.047H672.218C673.722 109.047 674.967 108.757 675.956 108.177C676.944 107.597 677.681 106.771 678.166 105.7C678.652 104.629 678.894 103.353 678.894 101.874C678.894 100.406 678.655 99.1422 678.175 98.0827C677.696 97.0174 676.98 96.2006 676.027 95.6325C675.074 95.0584 673.887 94.7713 672.467 94.7713H668.951V109.047Z" fill="#818181"/>
<path d="M321.75 14.4972C321.75 10.5724 320.828 7.3547 319.017 4.8442C316.694 1.62652 313.107 0 308.255 0C303.609 0 300.124 1.76795 297.767 5.2685C295.922 7.99115 295 11.2796 295 15.1337C295 19.3768 296.059 22.8773 298.177 25.7061C300.603 28.6055 303.917 30.0199 308.187 30.0199C309.588 30.0199 310.886 29.8431 312.082 29.4895C313.277 29.1359 314.371 28.6762 315.396 28.1105L319.632 31.4342L321.511 29.1005L317.753 26.0597C319.324 24.4331 320.418 22.347 321.101 19.7657C321.545 18.1039 321.75 16.3359 321.75 14.4972ZM317.343 19.3768C316.933 21.0387 316.181 22.5591 315.02 23.9028L311.433 21.0033L309.554 23.3724L312.594 25.8121C312.082 26.1304 311.501 26.3425 310.852 26.484C310.203 26.6254 309.451 26.6608 308.665 26.6608C305.454 26.6608 302.994 25.6354 301.354 23.6199C299.68 21.6044 298.86 18.8818 298.86 15.4519C298.86 11.3856 299.715 8.38011 301.457 6.43536C303.199 4.49061 305.522 3.50055 308.495 3.50055C311.433 3.50055 313.722 4.52597 315.43 6.5768C317.104 8.62762 317.958 11.3149 317.958 14.6387C317.958 16.1237 317.753 17.7149 317.343 19.3768Z" fill="#818181"/>
<path d="M333.333 1.9085C332.069 2.72176 331.01 4.10077 330.156 5.9748V1.27205H326.535V30.1251H330.156V15.9814C330.156 14.4256 330.293 12.9405 330.566 11.4908C330.839 10.0765 331.283 8.83889 331.967 7.81348C332.616 6.78807 333.538 5.97481 334.666 5.3737C335.793 4.7726 337.262 4.48973 339.004 4.52509H339.243V0.494141H339.039C336.681 0.5295 334.768 0.989168 333.333 1.9085Z" fill="#818181"/>
<path d="M358.204 15.4864C356.905 14.8853 355.436 14.3903 353.933 14.072C352.43 13.7538 350.995 13.3649 349.731 12.9405C348.467 12.5162 347.374 11.9859 346.554 11.314C345.734 10.6776 345.324 9.75823 345.324 8.55602C345.324 7.14166 345.802 6.04553 346.827 5.19691C347.852 4.34829 349.355 3.88862 351.303 3.88862C353.25 3.88862 354.924 4.31293 356.188 5.19691C357.452 6.04553 358.238 7.56596 358.511 9.68751L358.545 9.8643H362.201L362.167 9.6168C361.757 6.36376 360.629 3.9947 358.716 2.58034C356.837 1.20133 354.377 0.494141 351.371 0.494141C348.262 0.494141 345.837 1.27204 344.128 2.82784C342.42 4.38364 341.532 6.39911 341.532 8.83889C341.532 10.7483 341.976 12.2687 342.864 13.2941C343.753 14.3549 344.88 15.1328 346.212 15.6986C347.511 16.2643 348.98 16.6533 350.483 16.9361C351.986 17.219 353.421 17.5372 354.685 17.9262C355.949 18.3151 357.042 18.8102 357.862 19.482C358.682 20.1184 359.092 21.0731 359.092 22.4168C359.092 23.0886 358.955 23.7251 358.682 24.2908C358.409 24.8919 357.999 25.4223 357.486 25.882C356.974 26.3417 356.291 26.7306 355.471 27.0135C354.651 27.2963 353.66 27.4378 352.533 27.4378C350.175 27.4378 348.365 26.9428 347.135 25.9881C345.905 25.0334 345.017 23.3361 344.538 20.9317L344.504 20.7549H340.883V20.9671C340.951 22.3461 341.259 23.619 341.737 24.8212C342.249 26.0234 342.933 27.0488 343.855 27.9682C344.743 28.8521 345.871 29.5593 347.135 30.0544C348.399 30.5494 349.868 30.7969 351.508 30.7969C353.147 30.7969 354.651 30.6201 356.017 30.2665C357.384 29.9129 358.614 29.3825 359.604 28.6753C360.629 27.9682 361.415 27.0842 361.996 25.9881C362.577 24.9273 362.884 23.6897 362.884 22.3107C362.884 20.4367 362.44 18.9516 361.552 17.8908C360.629 16.9361 359.536 16.1229 358.204 15.4864Z" fill="#818181"/>
<path d="M364.42 0.8125V4.34841H374.122V30.5849H378.051V4.34841H387.753V0.8125H364.42Z" fill="#818181"/>
</svg>
