<svg width="current" height="current" viewBox="0 0 33 31" fill="none" xmlns="http://www.w3.org/2000/svg">
<path fill-rule="evenodd" clip-rule="evenodd" d="M17.6254 0.933808L16.75 0L15.8745 0.933808L0.874512 16.9338L2.6254 18.5753L16.75 3.50907L30.8745 18.5753L32.6254 16.9338L17.6254 0.933808ZM17.6317 5.9406L16.75 4.98536L15.8682 5.9406L3.86819 18.9406L3.54996 19.2854V19.7545V29.2545V30.4545H4.74996H12.75H13.95V29.2545V20.9545H19.55V29.2545V30.4545H20.75H28.75H29.95V29.2545V19.7545V19.2854L29.6317 18.9406L17.6317 5.9406ZM5.94996 28.0545V20.2237L16.75 8.52372L27.55 20.2237V28.0545H21.95V19.7545V18.5545H20.75H12.75H11.55V19.7545V28.0545H5.94996Z" fill="#080808"/>
</svg>
