<svg width="962" height="231" viewBox="0 0 962 231" fill="none" xmlns="http://www.w3.org/2000/svg">
<path d="M63.0137 75.4832C58.3096 82.5941 51.4174 86.0949 42.3373 86.0949C32.4914 86.0949 25.1617 82.7035 20.2388 76.0302C15.3158 69.3569 12.7997 60.605 12.7997 49.7745C12.7997 36.6466 15.5346 26.8007 21.0045 20.4556C26.4745 14.1105 33.6948 10.8285 42.5561 10.8285C49.8858 10.8285 55.5746 12.5789 59.6223 16.0796C63.6701 19.5804 66.405 24.2846 67.7178 30.1921H79.8611C79.2047 22.4248 75.5945 15.4233 69.2494 9.29695C62.9043 3.17061 53.9336 0.107422 42.4467 0.107422C28.8813 0.107422 18.379 4.81157 10.6117 14.3293C3.50076 23.0812 0 34.1304 0 47.8053C0 65.7467 4.70415 78.984 14.2218 87.5171C21.4422 93.9716 30.3035 97.2535 40.9151 97.2535C53.1678 97.2535 62.9043 93.3152 70.1246 85.4385C76.1416 78.8745 79.7517 70.779 80.7363 61.0426H68.593C67.3896 66.8407 65.5299 71.7636 63.0137 75.4832Z" fill="white" fill-opacity="0.9"/>
<path d="M133.464 0C117.93 0 106.115 5.68871 98.2379 17.0662C92.0021 25.9275 88.939 36.5392 88.939 49.0106C88.939 62.7949 92.5491 74.1723 99.7694 83.2524C107.865 92.6607 119.024 97.2555 133.245 97.2555C148.452 97.2555 160.158 91.8949 168.253 81.1739C175.255 72.0938 178.755 60.6069 178.755 46.8227C178.755 34.1324 175.692 23.6301 169.566 15.5346C161.799 5.14172 149.765 0 133.464 0ZM158.626 74.3912C153.703 82.2679 145.717 86.2062 134.777 86.2062C123.181 86.2062 114.866 82.7055 109.615 75.7039C104.474 68.7024 101.848 60.0599 101.848 49.8858C101.848 37.0862 104.911 27.4591 110.928 20.8951C116.945 14.3312 124.712 11.0492 134.23 11.0492C144.076 11.0492 151.843 14.3312 157.423 21.0045C163.111 27.5685 165.956 36.3204 165.956 47.1508C165.956 57.4343 163.549 66.5145 158.626 74.3912Z" fill="white" fill-opacity="0.9"/>
<path d="M202.934 2.51562H190.353V94.6294H249.1V83.5801H202.934V2.51562Z" fill="white" fill-opacity="0.9"/>
<path d="M271.089 2.51562H258.617V94.6294H317.364V83.5801H271.089V2.51562Z" fill="white" fill-opacity="0.9"/>
<path d="M340.23 52.4015H390.772V41.6804H340.23V13.7837H394.93V2.51562H328.087V94.6294H395.805V83.5801H340.23V52.4015Z" fill="white" fill-opacity="0.9"/>
<path d="M475.225 85.2197C481.242 78.6558 484.852 70.5602 485.837 60.8237H473.693C472.49 66.8407 470.63 71.7636 468.114 75.4832C463.41 82.5941 456.518 86.0949 447.438 86.0949C437.592 86.0949 430.262 82.7035 425.339 76.0302C420.416 69.3569 417.9 60.605 417.9 49.7745C417.9 36.6466 420.635 26.8007 426.105 20.4556C431.575 14.1105 438.795 10.8285 447.656 10.8285C454.986 10.8285 460.675 12.5789 464.723 16.0796C468.77 19.5804 471.505 24.2846 472.818 30.1921H485.071C484.414 22.4248 480.804 15.4233 474.459 9.29695C468.114 3.17061 459.143 0.107422 447.656 0.107422C434.091 0.107422 423.589 4.81157 415.821 14.3293C408.71 23.0812 405.21 34.1304 405.21 47.8053C405.21 65.7467 409.914 78.984 419.432 87.5171C426.652 93.9716 435.513 97.2535 446.125 97.2535C458.268 97.0348 468.005 93.0964 475.225 85.2197Z" fill="white" fill-opacity="0.9"/>
<path d="M534.741 94.6294V13.4555H565.81V2.51562H491.091V13.4555H522.16V94.6294H534.741Z" fill="white" fill-opacity="0.9"/>
<path d="M589.554 2.51562H576.974V94.6294H589.554V2.51562Z" fill="white" fill-opacity="0.9"/>
<path d="M640.312 80.9546L613.838 2.51562H600.053L633.639 94.6294H646.876L680.461 2.51562H666.458L640.312 80.9546Z" fill="white" fill-opacity="0.9"/>
<path d="M758.024 83.5801H702.341V52.4015H752.883V41.6804H702.341V13.7837H757.04V2.51562H690.197V94.6294H758.024V83.5801Z" fill="white" fill-opacity="0.9"/>
<path d="M545.952 178.389C545.952 166.245 542.998 156.29 537.2 148.523C529.761 138.568 518.274 133.535 502.739 133.535C487.861 133.535 476.702 139.005 469.154 149.836C463.246 158.259 460.292 168.433 460.292 180.358C460.292 193.486 463.684 204.316 470.467 213.068C478.234 222.039 488.846 226.415 502.52 226.415C507.006 226.415 511.163 225.868 514.992 224.774C518.821 223.68 522.322 222.258 525.604 220.507L539.169 230.791L545.186 223.57L533.152 214.162C538.184 209.13 541.685 202.675 543.873 194.689C545.295 189.547 545.952 184.077 545.952 178.389ZM531.839 193.486C530.527 198.627 528.12 203.332 524.4 207.489L512.913 198.518L506.896 205.848L516.633 213.396C514.992 214.381 513.132 215.037 511.054 215.475C508.975 215.912 506.568 216.022 504.052 216.022C493.769 216.022 485.892 212.849 480.641 206.614C475.28 200.378 472.655 191.954 472.655 181.342C472.655 168.762 475.39 159.463 480.969 153.446C486.548 147.429 493.987 144.366 503.505 144.366C512.913 144.366 520.243 147.538 525.713 153.883C531.073 160.228 533.808 168.543 533.808 178.826C533.808 183.421 533.152 188.344 531.839 193.486Z" fill="white" fill-opacity="0.9"/>
<path d="M583.045 139.443C578.997 141.959 575.606 146.226 572.871 152.024V137.474H561.274V226.743H572.871V182.984C572.871 178.17 573.308 173.575 574.183 169.09C575.059 164.714 576.481 160.885 578.669 157.712C580.747 154.54 583.701 152.024 587.311 150.164C590.921 148.304 595.626 147.429 601.205 147.538H601.971V135.067H601.314C593.766 135.176 587.639 136.598 583.045 139.443Z" fill="white" fill-opacity="0.9"/>
<path d="M662.682 181.452C658.525 179.592 653.821 178.061 649.007 177.076C644.194 176.091 639.599 174.888 635.551 173.575C631.503 172.262 628.003 170.622 625.377 168.543C622.751 166.574 621.439 163.729 621.439 160.01C621.439 155.634 622.97 152.243 626.252 149.617C629.534 146.991 634.348 145.569 640.583 145.569C646.819 145.569 652.18 146.882 656.227 149.617C660.275 152.243 662.791 156.947 663.667 163.511L663.776 164.058H675.482L675.372 163.292C674.059 153.227 670.449 145.897 664.323 141.521C658.306 137.255 650.429 135.067 640.802 135.067C630.847 135.067 623.08 137.474 617.61 142.287C612.14 147.101 609.295 153.336 609.295 160.885C609.295 166.793 610.718 171.497 613.562 174.669C616.406 177.951 620.016 180.358 624.283 182.108C628.44 183.859 633.144 185.062 637.958 185.937C642.771 186.813 647.366 187.797 651.414 189.001C655.462 190.204 658.962 191.735 661.588 193.814C664.214 195.783 665.526 198.737 665.526 202.894C665.526 204.973 665.089 206.942 664.214 208.692C663.338 210.552 662.026 212.193 660.385 213.615C658.744 215.037 656.556 216.241 653.93 217.116C651.305 217.991 648.132 218.429 644.522 218.429C636.973 218.429 631.175 216.897 627.237 213.943C623.298 210.99 620.454 205.739 618.922 198.299L618.813 197.752H607.217V198.409C607.436 202.675 608.42 206.614 609.952 210.333C611.593 214.053 613.781 217.225 616.735 220.07C619.579 222.805 623.189 224.993 627.237 226.524C631.285 228.056 635.989 228.822 641.24 228.822C646.491 228.822 651.304 228.275 655.68 227.181C660.056 226.087 663.995 224.446 667.167 222.258C670.449 220.07 672.965 217.335 674.825 213.943C676.685 210.661 677.67 206.833 677.67 202.566C677.67 196.768 676.247 192.173 673.403 188.891C670.449 185.937 666.949 183.421 662.682 181.452Z" fill="white" fill-opacity="0.9"/>
<path d="M682.589 136.051V146.991H713.659V228.165H726.239V146.991H757.309V136.051H682.589Z" fill="white" fill-opacity="0.9"/>
</svg>