<svg width="962" height="231" viewBox="0 0 962 231" fill="none" xmlns="http://www.w3.org/2000/svg">
<path d="M70.6997 73.6253C74.3099 65.7486 76.1696 56.8873 76.1696 47.1508C76.1696 34.4606 73.1065 24.0677 66.9801 15.9722C59.9786 7.00147 50.3515 2.51611 37.8801 2.51611H1.0127V94.6299H37.6613C53.3053 94.6299 64.3546 87.6284 70.6997 73.6253ZM13.5936 83.9088V13.2372H35.2545C45.1004 13.2372 52.2113 16.4098 56.6967 22.7549C61.182 29.1 63.37 37.9613 63.37 49.3388C63.37 52.2926 63.0418 55.5745 62.4948 58.9659C61.4008 64.764 59.6504 69.5776 57.2437 73.2971C54.1805 77.8919 50.3515 81.0645 45.538 82.7054C42.9124 83.5806 39.5211 84.0182 35.3639 84.0182H13.5936V83.9088Z" fill="white" fill-opacity="0.9"/>
<path d="M158.982 83.69H103.298V52.402H153.841V41.7903H103.298V13.7842H157.998V2.51611H91.155V94.6299H158.982V83.69Z" fill="white" fill-opacity="0.9"/>
<path d="M229.66 90.692C236.88 86.3161 240.491 78.9863 240.491 68.8123C240.491 60.6074 237.646 54.3716 231.957 50.1051C228.675 47.5889 223.971 45.7291 217.954 44.3069L205.483 41.3532C197.059 39.384 191.699 37.6336 189.292 36.3208C185.682 34.2423 183.822 30.9603 183.822 26.3655C183.822 22.3178 185.354 18.7076 188.417 15.5351C191.48 12.4719 196.622 10.9403 203.623 10.9403C212.375 10.9403 218.501 13.3471 222.221 18.1606C224.19 20.7862 225.503 24.6152 226.05 29.5381H237.756C237.756 19.2546 234.474 11.8155 227.91 7.22076C221.346 2.51661 213.36 0.219238 203.951 0.219238C193.777 0.219238 185.791 2.84481 180.321 8.20535C174.742 13.5659 172.007 20.3486 172.007 28.5535C172.007 36.2114 174.851 41.9002 180.54 45.8385C183.822 48.0265 189.401 50.1051 197.278 51.9649L209.421 54.8092C215.985 56.3408 220.799 58.2006 223.862 60.2792C226.925 62.3577 228.457 65.9679 228.457 71.0002C228.457 77.6736 224.847 82.3777 217.736 84.8939C214.016 86.2067 209.968 86.8631 205.374 86.8631C195.309 86.8631 188.307 83.7999 184.26 77.6736C182.181 74.3916 180.978 70.125 180.649 64.9833H168.944C168.834 74.9386 171.898 82.8153 178.243 88.6134C184.588 94.521 193.34 97.3653 204.498 97.3653C214.016 97.3653 222.44 95.068 229.66 90.692Z" fill="white" fill-opacity="0.9"/>
<path d="M270.354 2.51611H257.773V94.6299H270.354V2.51611Z" fill="white" fill-opacity="0.9"/>
<path d="M324.178 97.0367C332.492 97.0367 339.384 95.5051 344.745 92.442C347.917 90.6916 351.637 87.4096 355.794 82.8149L358.857 94.63H366.843V45.2911H326.366V55.684H355.247C355.138 66.5145 352.403 74.2818 347.042 79.0953C341.682 83.9089 334.899 86.3157 326.803 86.3157C316.192 86.3157 308.424 82.9243 303.72 76.0322C299.016 69.14 296.609 60.2787 296.609 49.2295C296.609 36.5392 299.454 27.0215 305.142 20.6764C310.831 14.3312 317.833 11.0493 326.256 11.0493C333.258 11.0493 339.165 12.5809 343.76 15.644C348.355 18.7072 351.418 23.6301 352.95 30.3035H365.312C363.342 18.2696 357.763 9.84589 348.792 5.03234C342.557 1.64098 335.227 0 326.694 0C314.222 0 304.158 4.37595 296.281 13.0185C288.076 22.0986 283.919 34.3512 283.919 49.8859C283.919 65.3111 288.186 77.5637 296.609 86.425C304.158 93.536 313.457 97.0367 324.178 97.0367Z" fill="white" fill-opacity="0.9"/>
<path d="M395.945 20.2387L442.658 94.6299H456.662V2.51611H444.737V76.9073L398.79 2.51611H384.021V94.6299H395.945V20.2387Z" fill="white" fill-opacity="0.9"/>
<path d="M63.0137 209.171C58.3095 216.282 51.4174 219.782 42.3373 219.782C32.4914 219.782 25.1617 216.391 20.2388 209.718C15.3158 203.044 12.7997 194.292 12.7997 183.462C12.7997 170.334 15.5346 160.488 21.0046 154.143C26.4745 147.798 33.6948 144.516 42.5561 144.516C49.8858 144.516 55.5746 146.266 59.6223 149.767C63.6701 153.268 66.4051 157.972 67.7178 163.88H79.8611C79.2047 156.112 75.5946 149.111 69.2494 142.984C62.9043 136.858 53.9336 133.795 42.4467 133.795C28.8813 133.795 18.379 138.499 10.6117 148.017C3.50076 156.769 0 167.818 0 181.493C0 199.434 4.70415 212.671 14.2218 221.205C21.4422 227.659 30.3035 230.941 40.9151 230.941C53.1678 230.941 62.9043 227.003 70.1246 219.126C76.1415 212.562 79.7517 204.467 80.7363 194.73H68.593C67.3896 200.638 65.5299 205.451 63.0137 209.171Z" fill="white" fill-opacity="0.9"/>
<path d="M133.47 133.685C117.935 133.685 106.12 139.373 98.2437 150.751C92.008 159.612 88.9448 170.224 88.9448 182.695C88.9448 196.479 92.555 207.857 99.7753 216.937C107.871 226.345 119.029 230.94 133.251 230.94C148.458 230.94 160.163 225.58 168.259 214.858C175.26 205.778 178.761 194.291 178.761 180.507C178.761 167.817 175.698 157.315 169.572 149.219C161.804 138.936 149.661 133.685 133.47 133.685ZM158.522 208.076C153.599 215.952 145.613 219.891 134.674 219.891C123.077 219.891 114.763 216.39 109.512 209.389C104.37 202.387 101.744 193.745 101.744 183.57C101.744 170.771 104.808 161.144 110.825 154.58C116.842 148.016 124.609 144.734 134.127 144.734C143.972 144.734 151.74 148.016 157.319 154.689C163.008 161.253 165.852 170.005 165.852 180.835C165.962 191.119 163.445 200.199 158.522 208.076Z" fill="white" fill-opacity="0.9"/>
<path d="M262.888 228.315V136.202H251.073V210.702L205.126 136.202H190.357V228.315H202.281V154.034L248.885 228.315H262.888Z" fill="white" fill-opacity="0.9"/>
<path d="M306.976 228.315H320.213L353.799 136.202H339.796L313.649 214.641L287.175 136.202H273.391L306.976 228.315Z" fill="white" fill-opacity="0.9"/>
<path d="M430.378 147.47V136.202H363.535V228.315H431.362V217.376H375.788V186.197H426.33V175.476H375.788V147.47H430.378Z" fill="white" fill-opacity="0.9"/>
<path d="M517.571 220.658C517.134 218.907 516.806 216.282 516.696 212.781L516.259 200.419C516.04 195.058 515.055 191.229 513.195 188.822C511.336 186.416 508.71 184.556 505.1 183.024C509.148 180.946 512.43 178.101 514.618 174.601C516.915 171.1 518.009 166.615 518.009 161.035C518.009 150.424 513.742 143.203 505.209 139.265C500.724 137.186 495.035 136.202 488.143 136.202H446.243V228.315H458.715V188.822H486.283C491.206 188.822 494.926 189.369 497.223 190.463C501.271 192.542 503.459 196.59 503.787 202.607L504.553 217.923C504.772 221.533 504.881 223.94 505.209 225.252C505.538 226.565 505.756 227.55 506.194 228.315H521.51V226.237C519.65 225.471 518.228 223.611 517.571 220.658ZM500.396 174.929C497.114 177.226 492.629 178.43 486.94 178.43H458.934V146.923H488.471C492.629 146.923 495.91 147.579 498.427 148.783C503.021 151.189 505.428 155.675 505.428 162.239C505.319 168.365 503.678 172.522 500.396 174.929Z" fill="white" fill-opacity="0.9"/>
<path d="M613.728 179.086H573.251V189.479H602.132C602.023 200.309 599.288 208.077 593.927 212.89C588.567 217.704 581.784 220.111 573.689 220.111C563.077 220.111 555.31 216.719 550.605 209.827C545.901 202.935 543.494 194.074 543.494 183.024C543.494 170.334 546.339 160.816 552.028 154.471C557.716 148.126 564.718 144.844 573.142 144.844C580.143 144.844 586.051 146.376 590.645 149.439C595.24 152.502 598.303 157.425 599.835 164.098H612.197C610.228 152.065 604.648 143.641 595.678 138.827C589.442 135.436 582.112 133.795 573.579 133.795C561.108 133.795 551.043 138.171 543.166 146.813C534.961 155.893 530.804 168.146 530.804 183.681C530.804 199.106 535.071 211.359 543.494 220.22C551.262 227.331 560.451 230.832 571.172 230.832C579.487 230.832 586.379 229.3 591.739 226.237C594.912 224.487 598.631 221.205 602.789 216.61L605.852 228.425H613.838V179.086H613.728Z" fill="white" fill-opacity="0.9"/>
<path d="M700.047 217.376H644.473V186.197H695.015V175.476H644.473V147.47H699.172V136.202H632.22V228.315H700.047V217.376Z" fill="white" fill-opacity="0.9"/>
<path d="M725.426 154.034L772.03 228.315H786.143V136.202H774.218V210.702L728.271 136.202H713.502V228.315H725.426V154.034Z" fill="white" fill-opacity="0.9"/>
<path d="M813.165 221.096C820.385 227.55 829.246 230.832 839.858 230.832C852.111 230.832 861.847 226.894 869.068 219.017C875.084 212.453 878.695 204.358 879.679 194.621H867.536C866.333 200.638 864.473 205.561 861.957 209.281C857.252 216.391 850.36 219.892 841.28 219.892C831.434 219.892 824.105 216.501 819.182 209.828C814.259 203.154 811.743 194.402 811.743 183.572C811.743 170.444 814.478 160.598 819.947 154.253C825.417 147.908 832.638 144.626 841.499 144.626C848.829 144.626 854.517 146.376 858.565 149.877C862.613 153.378 865.348 158.082 866.661 163.989H878.804C878.148 156.222 874.537 149.221 868.192 143.094C861.847 136.968 852.876 133.905 841.39 133.905C827.824 133.905 817.322 138.609 809.555 148.127C802.444 156.879 798.943 167.928 798.943 181.603C798.943 199.216 803.647 212.453 813.165 221.096Z" fill="white" fill-opacity="0.9"/>
<path d="M961.62 217.376H905.936V186.197H956.478V175.476H905.936V147.47H960.635V136.202H893.793V228.315H961.62V217.376Z" fill="white" fill-opacity="0.9"/>
</svg>
