<?xml version="1.0" encoding="UTF-8"?>
<svg id="Layer_2" data-name="Layer 2" xmlns="http://www.w3.org/2000/svg" viewBox="0 0 130.18 44.03" width="current" height="current">
  <defs>
    <style>
      .cls-1 {
        stroke-width: 0px;
      }
    </style>
  </defs>
  <g id="Layer_1-2" data-name="Layer 1">
    <g>
      <path class="cls-1" d="M39.37,20.79c0,4.51-.88,8.3-2.63,11.39-1.75,3.09-4.12,5.43-7.09,7.02-2.98,1.59-6.3,2.38-9.96,2.38s-7.02-.8-9.99-2.4-5.33-3.95-7.08-7.04c-1.75-3.09-2.62-6.87-2.62-11.35s.87-8.3,2.62-11.39c1.75-3.09,4.1-5.43,7.08-7.02S15.99,0,19.68,0s6.98.79,9.96,2.38,5.34,3.93,7.09,7.02c1.75,3.09,2.63,6.89,2.63,11.39ZM28.06,20.79c0-2.42-.32-4.47-.96-6.14-.64-1.67-1.58-2.93-2.83-3.79-1.25-.86-2.78-1.29-4.59-1.29s-3.35.43-4.59,1.29c-1.25.86-2.19,2.13-2.83,3.79-.64,1.67-.96,3.71-.96,6.14s.32,4.47.96,6.14c.64,1.67,1.58,2.93,2.83,3.79,1.25.86,2.78,1.29,4.59,1.29s3.35-.43,4.59-1.29c1.25-.86,2.19-2.13,2.83-3.79.64-1.67.96-3.71.96-6.14ZM15.81,26.01h8.54l3.08,3.87,5.22,5.93,6.8,8.22h-9.72l-4.82-5.61-3.24-4.66-5.85-7.75Z"/>
      <path class="cls-1" d="M44.66,41.02V10.67h10.59v5.77h.32c.55-2.13,1.43-3.7,2.64-4.68,1.21-.99,2.62-1.48,4.24-1.48.47,0,.95.04,1.41.11s.92.17,1.35.31v9.31c-.54-.18-1.21-.32-2-.42-.79-.09-1.47-.14-2.04-.14-1.07,0-2.03.24-2.88.72-.85.48-1.52,1.15-2.01,2.02-.49.86-.73,1.87-.73,3.03v15.81h-10.91Z"/>
      <path class="cls-1" d="M96.51,20.55h-10.04c-.05-.62-.27-1.15-.65-1.6-.38-.45-.87-.79-1.47-1.04-.6-.24-1.26-.37-1.99-.37-.94,0-1.74.17-2.41.51-.67.34-1,.83-.99,1.46-.01.45.18.86.58,1.25.4.38,1.18.68,2.34.89l6.17,1.11c3.11.57,5.42,1.52,6.95,2.86,1.52,1.34,2.29,3.13,2.3,5.37-.01,2.16-.66,4.04-1.93,5.62-1.27,1.59-3,2.81-5.2,3.68-2.19.86-4.69,1.29-7.5,1.29-4.64,0-8.26-.95-10.88-2.85-2.62-1.9-4.07-4.4-4.38-7.51h10.83c.15.96.62,1.7,1.43,2.22.81.52,1.83.78,3.07.78,1,0,1.83-.17,2.48-.51.65-.34.98-.83,1-1.46-.01-.58-.3-1.04-.86-1.38s-1.43-.62-2.62-.83l-5.38-.95c-3.1-.54-5.42-1.57-6.96-3.08-1.54-1.52-2.31-3.46-2.29-5.85-.01-2.11.54-3.9,1.67-5.37,1.13-1.47,2.74-2.59,4.84-3.36,2.1-.77,4.59-1.16,7.48-1.16,4.39,0,7.85.91,10.38,2.73,2.54,1.82,3.87,4.33,4,7.55Z"/>
      <path class="cls-1" d="M95.01,9.41V.55h35.18v8.85h-12.17v31.62h-10.83V9.41h-12.17Z"/>
    </g>
  </g>
</svg>